<svg xmlns="http://www.w3.org/2000/svg" viewBox="0 0 80 80" style="enable-background:new 0 0 80 80" xml:space="preserve"><style>.st0{fill:#8fd2c1}.st2{fill:#fff}.st3{fill:none;stroke:#8fd2c1;stroke-width:.75;stroke-miterlimit:10}</style><g id="handcrafted"><path class="st3" d="M57.45 32.17c-2.22 1.21-4.45 2.42-6.67 3.62"/><path class="st0" d="m27.36 50.11-8.17 4.62 7.77-5.26z"/><ellipse class="st0" cx="58.76" cy="31.54" rx="1.71" ry="1.64"/><path class="st3" d="M52.65 25.99c-1.75 1.79-3.5 3.58-5.24 5.37"/><path class="st0" d="m29.4 52.48-6.23 7.09 5.64-7.56z"/><ellipse class="st0" cx="53.7" cy="25.02" rx="1.71" ry="1.64"/><path class="st0" d="M69.57 40.93c0 16.37-13.27 29.65-29.65 29.65S10.28 57.3 10.28 40.93s13.27-29.65 29.65-29.65 29.64 13.28 29.64 29.65zM40 1.27C18.61 1.27 1.27 18.61 1.27 40S18.61 78.73 40 78.73 78.73 61.39 78.73 40 61.39 1.27 40 1.27z"/><circle cx="38.13" cy="41" r="13.81" style="fill:none;stroke:#8fd2c1;stroke-miterlimit:10"/><path class="st3" d="M24.58 38.33c1.1.89 6.7 5.22 14.66 4.39 6.7-.7 10.89-4.62 12.09-5.82"/><path class="st3" d="M24.37 39.86c.23.36 5.09 7.61 13.95 7.31 8.92-.31 13.27-7.97 13.46-8.32"/><path class="st3" d="M24.63 43.93c.36.5 5.31 7.18 13.93 6.84 8.48-.34 12.87-7.15 13.22-7.72M26.02 34.64c1.43.17 3.71.62 6.14 1.97 3.57 1.99 5.04 5.11 5.8 6.44M27.19 32.42c1.49-.25 6.13-.82 10.96 1.94 3.77 2.15 6.33 5.22 7.12 6.65M29.88 30.12c1.84-.31 7.11-.94 12.61 1.96 3.55 1.87 6.15 4.91 7.24 6.44"/><path class="st2" d="M6.41 43.47c-.95-.75-1.89-1.51-2.84-2.26-.59-.58-.53-1.53.06-2.02.59-.49 1.54-.36 2 .32.36-.94 1.36-1.37 2.1-1.06.55.23.92.85.9 1.54-.74 1.15-1.48 2.31-2.22 3.48zM73.57 42.01c-.67-1.01-1.34-2.02-2.01-3.02-.38-.73-.04-1.62.68-1.91.72-.29 1.58.13 1.81.92.63-.79 1.72-.88 2.32-.36.45.39.61 1.09.39 1.74-1.06.87-2.13 1.75-3.19 2.63zM14.6 21.24a.09.09 0 0 1-.08.04c-.03 0-.06-.01-.09-.03l-2.48-2.1c-.03-.02-.04-.05-.04-.09 0-.03.01-.06.03-.09l.3-.36c.02-.03.05-.04.08-.05.03 0 .06.01.09.03l.98.83.98-1.16-.98-.83c-.03-.02-.04-.05-.05-.09 0-.03.01-.06.03-.09l.3-.35c.02-.03.05-.05.09-.05.03 0 .06.01.09.03l2.48 2.1c.03.02.04.05.04.08s-.01.06-.03.09l-.3.35a.09.09 0 0 1-.08.04c-.03 0-.06-.01-.09-.03l-1.02-.87-.98 1.16 1.02.87c.02.02.04.05.04.08s-.01.06-.03.09l-.3.4zM16.77 18.71c-.02.02-.05.03-.08.03s-.06-.01-.08-.03c-.01-.01-.02-.02-.02-.04l-1.33-3.19c-.02-.03-.02-.07-.02-.1 0-.04.02-.08.06-.11l.41-.39c.04-.04.08-.05.11-.05.04 0 .07.01.11.02l3.12 1.48c.01.01.03.02.04.03.02.02.03.05.03.08s-.01.05-.03.07l-.32.31c-.04.03-.07.05-.1.05s-.06-.01-.08-.02l-.59-.29-1.11 1.06.25.61c.01.02.01.04.01.08 0 .03-.02.06-.05.1l-.33.3zm-.15-1.63.85-.81-1.49-.71.64 1.52zM19.57 16.1c-.03.02-.06.03-.09.03s-.06-.02-.08-.04l-1.99-2.58a.161.161 0 0 1-.03-.09c0-.03.02-.06.05-.08l.31-.24c.04-.03.07-.04.1-.04s.05.01.06.01l2.54.87-1.34-1.74a.161.161 0 0 1-.03-.09c0-.03.02-.06.05-.08l.34-.26c.03-.02.06-.03.1-.03.03 0 .06.02.08.05l1.99 2.57c.02.03.03.06.03.09s-.02.06-.05.08l-.32.25c-.04.03-.07.04-.1.04-.03-.01-.05-.01-.06-.01l-2.51-.83 1.31 1.7c.02.03.03.06.02.09 0 .03-.02.06-.05.08l-.33.25zM22.41 13.98c-.03.02-.06.02-.09.02s-.06-.02-.08-.05l-1.71-2.77c-.02-.03-.02-.06-.02-.1.01-.03.03-.06.06-.08l1.07-.66c.29-.18.56-.29.81-.32.25-.03.47.01.68.12.2.11.39.29.54.54.08.12.15.23.21.33s.12.21.19.33c.16.27.24.52.25.74.01.23-.05.44-.19.64s-.35.39-.64.57l-1.08.69zm.2-.8.56-.35c.16-.1.28-.21.36-.31.07-.11.1-.23.09-.36-.01-.13-.07-.28-.17-.45l-.13-.23c-.04-.06-.08-.13-.12-.19-.04-.06-.09-.13-.14-.22-.15-.23-.32-.36-.5-.4-.18-.04-.4.02-.65.17l-.54.33 1.24 2.01zM26.61 11.66c-.29.14-.56.21-.8.21-.25 0-.47-.07-.66-.2-.19-.13-.36-.32-.49-.57-.06-.12-.13-.25-.2-.39s-.13-.28-.19-.41c-.11-.26-.15-.5-.14-.74.02-.23.1-.45.26-.64.15-.19.37-.36.66-.5.21-.1.41-.17.61-.19.19-.03.37-.02.53.02.16.04.31.1.43.2.13.1.23.22.3.36.02.02.02.05.01.08a.09.09 0 0 1-.06.06l-.44.21c-.03.02-.07.02-.1.02a.236.236 0 0 1-.09-.06c-.15-.17-.3-.27-.45-.28a.95.95 0 0 0-.5.11c-.21.1-.35.23-.42.41-.07.17-.05.39.07.65.11.25.23.5.36.76.13.25.29.41.47.46.18.05.37.03.58-.07.18-.09.31-.2.4-.33.09-.13.11-.31.06-.53-.01-.05-.01-.08.01-.11.01-.03.04-.05.07-.06l.44-.21c.03-.01.06-.02.09-.01s.05.03.06.06a1.06 1.06 0 0 1-.01.92c-.07.15-.18.29-.32.43-.15.12-.32.23-.54.34zM28.58 10.71c-.03.01-.06.01-.09 0s-.05-.04-.06-.07l-1.1-3.06c-.01-.03-.01-.07 0-.1s.04-.05.07-.06l1.25-.45c.39-.14.73-.16 1.02-.07.29.09.49.31.61.65.08.23.1.45.03.64-.06.2-.18.36-.35.5l1.14.95c.02.02.03.03.03.05.01.03.01.06-.01.08-.01.03-.03.04-.06.05l-.44.16c-.06.02-.1.02-.14 0-.04-.02-.07-.04-.1-.06l-1.03-.89-.67.24.41 1.13c.01.03.01.06 0 .09s-.04.05-.07.06l-.44.16zm-.08-1.97.68-.25c.2-.07.33-.17.39-.29.07-.12.07-.26.02-.42a.53.53 0 0 0-.28-.32c-.13-.06-.29-.05-.49.02l-.68.25.36 1.01zM31.45 9.69c-.03.01-.05 0-.08-.01-.02-.01-.04-.04-.05-.06v-.05l.44-3.43c0-.03.01-.07.04-.1.02-.03.06-.05.11-.06l.54-.13c.05-.01.09-.01.12.01s.06.04.08.07l1.97 2.84c.01.02.01.03.01.04.01.03 0 .06-.01.08-.01.02-.04.04-.06.05l-.44.11c-.05.01-.08.01-.11-.01-.02-.02-.04-.04-.05-.06l-.38-.54-1.48.37-.1.65c0 .02-.01.04-.03.07-.02.03-.05.04-.1.06l-.42.1zm.68-1.48 1.14-.28-.94-1.36-.2 1.64zM35.18 8.85c-.03 0-.06 0-.09-.02s-.04-.05-.05-.08l-.44-3.23c-.01-.04 0-.07.02-.09.02-.03.05-.04.08-.05l2.21-.3c.04-.01.07 0 .1.02s.04.05.05.08l.05.35c.01.04 0 .07-.02.09-.02.03-.05.04-.09.05l-1.64.22.13.94 1.54-.21c.04-.01.07 0 .1.02s.04.05.05.08l.05.35c0 .03 0 .06-.02.09s-.05.04-.09.05l-1.54.21.17 1.23c0 .03 0 .06-.02.09s-.05.04-.09.05l-.46.06zM38.95 8.45c-.03 0-.06-.01-.09-.03a.09.09 0 0 1-.04-.08l-.11-2.76-.95.04c-.03 0-.06-.01-.09-.03a.09.09 0 0 1-.04-.08l-.02-.37c0-.04.01-.07.03-.09a.11.11 0 0 1 .1-.05l2.62-.1c.04 0 .07.01.09.03.03.02.04.05.04.09l.02.37c0 .03-.01.06-.03.09-.02.02-.05.04-.09.04l-.95.04.11 2.76c0 .03-.01.06-.03.09-.02.02-.05.04-.09.04h-.48zM41.22 8.41c-.04 0-.06-.02-.09-.04-.02-.02-.03-.05-.03-.09l.2-3.25c0-.04.02-.07.04-.09.03-.02.06-.03.09-.03l2.26.14c.04 0 .07.02.09.04.02.02.03.06.03.09l-.01.34c0 .03-.02.06-.04.08-.03.02-.06.03-.09.03l-1.69-.1-.05.88 1.58.1c.04 0 .07.02.09.04.02.02.03.05.03.09l-.03.31c0 .04-.02.06-.04.09-.03.02-.06.03-.1.03l-1.58-.1-.06.91 1.73.11c.04 0 .07.02.09.04.02.02.03.06.03.09l-.02.33c0 .03-.02.06-.04.08-.03.02-.06.03-.1.03l-2.29-.15zM44.32 8.63c-.03-.01-.06-.02-.08-.05-.02-.03-.03-.06-.02-.09l.58-3.2c.01-.04.02-.06.05-.08.03-.02.06-.02.09-.02l1.24.22c.34.06.61.16.82.3.2.14.34.32.42.54.08.22.09.48.04.76-.02.15-.04.27-.06.39-.02.11-.05.24-.08.38-.06.3-.17.54-.31.72-.15.18-.33.3-.57.35-.24.06-.52.06-.86-.01l-1.26-.21zm.68-.46.65.12c.19.03.35.04.48 0 .13-.03.23-.1.31-.21.08-.11.13-.25.17-.44.02-.1.04-.18.05-.26.01-.07.03-.15.04-.22.01-.07.02-.16.04-.25.04-.27.01-.48-.1-.63-.11-.15-.31-.25-.59-.31l-.63-.11L45 8.17zM50.02 9.96c-.03-.01-.06-.03-.07-.06a.097.097 0 0 1-.01-.09l1.04-3.09c.01-.03.03-.05.06-.07.03-.01.06-.02.09-.01l.46.15c.04.01.06.03.07.06.01.03.02.06.01.09l-1.04 3.09c-.01.03-.03.06-.06.07-.03.02-.06.02-.1 0l-.45-.14zM51.41 10.42c-.03-.01-.05-.04-.07-.07a.139.139 0 0 1 0-.09l1.28-2.99c.02-.03.04-.06.07-.07.03-.01.06-.01.09 0l.37.16c.04.02.07.04.08.07.01.03.02.05.02.06l.49 2.64.86-2.02c.02-.03.04-.06.07-.07s.06-.01.1 0l.4.17c.03.01.06.04.07.07.01.03.01.06 0 .1l-1.27 2.99a.12.12 0 0 1-.07.07c-.03.01-.06.01-.09 0l-.37-.16c-.04-.02-.07-.04-.08-.07-.01-.03-.02-.05-.02-.06l-.5-2.59-.84 1.98c-.01.03-.04.05-.07.06a.17.17 0 0 1-.1 0l-.42-.18zM56.69 13.03a.124.124 0 0 1-.06-.08c-.01-.03 0-.06.01-.09l1.71-2.77c.02-.03.04-.05.08-.05.03-.01.06 0 .09.02l.41.25c.03.02.05.05.06.08.01.03 0 .06-.02.09l-1.71 2.77c-.02.03-.04.05-.07.06-.03.01-.06 0-.1-.02l-.4-.26zM57.94 13.8c-.03-.02-.04-.05-.05-.08 0-.03 0-.06.02-.09L59.83 11c.02-.03.05-.05.08-.05s.06 0 .09.02l.32.23a.176.176 0 0 1 .08.15l-.12 2.68 1.29-1.77c.02-.03.05-.05.08-.05.03-.01.06 0 .09.02l.35.25c.03.02.05.05.05.08.01.03 0 .06-.02.09l-1.92 2.63c-.02.03-.05.05-.08.05s-.06 0-.09-.02l-.32-.24c-.04-.03-.06-.06-.06-.09s-.01-.05-.01-.06l.1-2.64-1.27 1.74c-.02.03-.05.04-.08.05-.03 0-.07 0-.1-.03l-.35-.24zM60.78 15.94a.09.09 0 0 1-.04-.08c0-.03.01-.06.03-.09l2.19-2.41c.03-.03.05-.04.09-.04.03 0 .06.01.09.03l.93.85c.26.23.43.46.53.69.1.23.12.46.07.68-.05.23-.17.45-.37.67-.09.11-.18.21-.25.3s-.17.18-.27.28c-.21.22-.43.37-.65.45-.22.08-.44.08-.67 0-.23-.08-.47-.23-.73-.46l-.95-.87zm.83-.03.49.45c.14.13.28.21.4.26.12.04.25.04.37-.01s.25-.15.38-.29c.07-.07.13-.13.18-.19.05-.05.1-.11.15-.17.05-.06.1-.12.17-.2.18-.21.26-.4.25-.59-.01-.19-.13-.38-.34-.57l-.47-.43-1.58 1.74zM63.36 18.39c-.02-.03-.04-.05-.03-.09 0-.03.01-.06.04-.08l2.37-2.24c.02-.02.05-.03.09-.03.03 0 .06.02.09.04l.33.35c.03.03.04.06.04.09s-.01.06-.04.08l-2.37 2.24a.122.122 0 0 1-.17-.01l-.35-.35zM64.17 19.21c-.02-.02-.02-.05-.02-.08s.01-.05.04-.07c.01-.01.02-.02.04-.02l3.29-1.07c.03-.01.07-.02.1-.01.04.01.07.03.11.07l.35.44c.03.04.05.08.04.12 0 .04-.01.07-.03.1l-1.72 3-.03.03c-.02.02-.05.03-.08.02-.03 0-.05-.02-.07-.04l-.28-.35c-.03-.04-.04-.07-.04-.1s.01-.06.02-.07l.32-.57-.96-1.19-.63.2c-.02.01-.04.01-.08 0-.03 0-.06-.02-.09-.06l-.28-.35zm1.63-.02.74.91.83-1.43-1.57.52zM65.79 59.76c.02-.03.05-.04.08-.05.03 0 .06.01.09.03l2.48 2.1c.03.02.04.05.05.09 0 .03-.01.06-.03.09l-.3.36c-.02.03-.05.04-.08.05-.03 0-.06-.01-.09-.03l-.99-.84-.98 1.16.98.83c.03.02.04.05.05.08 0 .03-.01.06-.03.09l-.3.35c-.02.03-.05.04-.09.05-.03 0-.06-.01-.09-.03l-2.48-2.1a.09.09 0 0 1-.04-.08c0-.03.01-.06.03-.09l.3-.35a.09.09 0 0 1 .08-.04c.03 0 .06.01.09.03l1.02.87.98-1.16-1.02-.87a.09.09 0 0 1-.04-.08c0-.03.01-.06.03-.09l.3-.37zM63.62 62.29c.02-.02.05-.03.07-.03.03 0 .06.01.08.03.01.01.02.02.02.04l1.32 3.19c.01.03.02.07.02.1 0 .04-.02.08-.06.11l-.41.39c-.04.04-.07.05-.11.05-.04 0-.07-.01-.11-.02l-3.12-1.49-.03-.03a.114.114 0 0 1-.03-.08c0-.03.01-.05.03-.07l.32-.31c.03-.03.07-.05.1-.05s.06 0 .08.01l.6.28 1.11-1.05-.25-.61c-.01-.02-.01-.04-.01-.08s.02-.06.05-.1l.33-.28zm.14 1.63-.85.81 1.49.72-.64-1.53zM60.83 64.87c.03-.02.06-.03.09-.03s.06.02.08.05l1.98 2.58c.02.03.03.06.03.09s-.02.06-.05.08l-.31.24c-.04.03-.07.04-.1.04s-.05-.01-.06-.01l-2.54-.88 1.34 1.74c.02.03.03.06.03.09s-.02.06-.05.08l-.34.26c-.03.02-.06.03-.09.03s-.06-.02-.08-.05l-1.98-2.58a.161.161 0 0 1-.03-.09c0-.03.02-.06.05-.08l.32-.24c.04-.03.07-.04.1-.04.03.01.05.01.06.01l2.51.84-1.31-1.71c-.02-.03-.03-.06-.02-.09 0-.03.02-.06.05-.08l.32-.25zM57.97 67c.03-.02.06-.02.09-.02.03.01.06.03.07.05l1.7 2.78c.02.03.03.06.02.1-.01.03-.03.06-.06.08l-1.07.65c-.3.18-.57.29-.81.31-.25.03-.47-.01-.68-.13-.2-.11-.38-.29-.54-.54a8.29 8.29 0 0 1-.21-.33c-.06-.1-.12-.21-.19-.33-.16-.27-.24-.52-.25-.75-.01-.23.05-.44.19-.64s.35-.39.65-.57l1.09-.66zm-.2.8-.57.35c-.16.1-.28.2-.36.31a.47.47 0 0 0-.09.36c.01.13.07.28.17.45l.13.23c.04.07.08.13.12.19.04.06.09.13.14.22.15.23.31.37.5.41.18.04.4-.01.65-.17l.55-.33-1.24-2.02zM53.75 69.3c.29-.14.56-.2.8-.2.25 0 .47.07.66.2.19.13.36.32.49.57.06.12.13.25.19.39.07.14.13.28.19.41.11.26.15.51.13.74s-.11.45-.26.64c-.15.19-.37.36-.66.49-.21.1-.41.16-.61.19-.19.03-.37.02-.54-.02-.16-.04-.31-.11-.43-.2-.13-.09-.22-.22-.3-.36-.02-.03-.02-.05-.01-.08a.09.09 0 0 1 .06-.06l.44-.21c.03-.02.07-.02.1-.02.03.01.06.03.09.06.14.18.29.27.45.29.16.02.32-.02.5-.11.21-.1.35-.23.42-.41.07-.17.05-.39-.07-.65-.11-.25-.23-.5-.36-.76-.13-.25-.29-.41-.46-.46a.807.807 0 0 0-.58.07c-.18.08-.31.19-.4.32-.09.13-.11.31-.06.53.01.05.01.08-.01.11s-.04.05-.07.06l-.44.21c-.03.01-.06.02-.08.01a.09.09 0 0 1-.06-.06c-.07-.15-.1-.3-.09-.46.01-.16.04-.31.12-.46.07-.15.18-.29.32-.43.14-.12.32-.24.53-.34zM51.8 70.23c.03-.01.06-.01.09 0s.05.04.06.07l1.09 3.07c.01.03.01.07 0 .1s-.04.05-.07.06l-1.26.45c-.39.14-.73.16-1.02.06-.29-.1-.49-.31-.61-.65-.08-.23-.09-.45-.03-.64.06-.2.18-.36.35-.5l-1.13-.95c-.02-.02-.03-.03-.03-.05-.01-.03-.01-.06.01-.08.01-.03.03-.04.06-.05l.44-.16c.06-.02.1-.02.14 0 .04.02.07.04.1.06l1.01.89.67-.24-.4-1.13a.139.139 0 0 1 0-.09c.01-.03.04-.05.07-.06l.46-.16zm.07 1.97-.69.24c-.2.07-.33.17-.4.29s-.07.26-.02.42c.06.16.15.26.27.32.13.06.29.05.49-.02l.68-.24-.33-1.01zM48.93 71.23c.02-.01.05 0 .08.01s.04.04.05.06v.05l-.45 3.43c0 .04-.02.07-.04.1s-.06.05-.11.06l-.54.13c-.05.01-.09.01-.12-.01a.27.27 0 0 1-.08-.07l-1.96-2.84c-.01-.02-.01-.03-.02-.04-.01-.03 0-.06.01-.08s.04-.04.06-.05l.44-.11c.05-.01.08-.01.11.01s.05.03.06.05l.38.54 1.49-.36.09-.65c0-.02.01-.04.03-.07.02-.03.05-.04.1-.06l.42-.1zm-.69 1.49-1.14.27.93 1.36.21-1.63zM45.2 72.08c.03 0 .06 0 .09.02s.04.05.05.08l.45 3.22c.01.04 0 .07-.02.09-.02.03-.05.04-.08.05l-2.21.31c-.04 0-.07 0-.1-.02s-.04-.05-.05-.08l-.05-.35c-.01-.04 0-.07.02-.09.02-.03.05-.04.09-.05l1.64-.23-.13-.94-1.53.21c-.04.01-.07 0-.1-.02s-.04-.05-.05-.08l-.05-.35c0-.03 0-.06.02-.09s.05-.04.09-.05l1.53-.21-.17-1.23c0-.03 0-.06.02-.09s.05-.04.09-.05l.45-.05zM41.4 72.49c.03 0 .06.01.09.03.03.02.04.05.04.08l.13 2.76.95-.05c.03 0 .06.01.09.03s.04.05.04.08l.02.37c0 .04-.01.07-.03.09-.02.02-.05.04-.09.04l-2.62.13c-.04 0-.07-.01-.09-.03a.127.127 0 0 1-.04-.09l-.02-.37c0-.03.01-.06.03-.09.02-.03.05-.04.09-.04l.95-.04-.13-2.76c0-.03.01-.06.03-.09s.05-.04.09-.04l.47-.01zM39.15 72.55c.03 0 .06.01.08.04.02.02.03.05.03.09l-.14 3.25c0 .04-.02.07-.04.09-.02.02-.05.03-.09.03l-2.26-.1c-.04 0-.07-.01-.09-.04-.02-.02-.03-.05-.03-.09l.01-.33c0-.03.02-.06.04-.08.02-.02.06-.03.09-.03l1.69.07.04-.88-1.58-.07c-.04 0-.07-.01-.09-.04-.02-.02-.03-.05-.03-.09l.01-.31c0-.04.02-.07.04-.09.02-.02.06-.03.09-.03l1.58.07.04-.91-1.73-.08c-.04 0-.07-.01-.09-.04s-.03-.06-.03-.09l.02-.33c0-.03.01-.06.04-.08s.06-.03.09-.03l2.31.1zM36.05 72.37c.03 0 .06.02.08.05s.03.06.02.09l-.52 3.21c-.01.04-.02.06-.05.08s-.06.03-.09.02l-1.24-.2c-.34-.06-.62-.15-.82-.29s-.35-.31-.43-.53c-.08-.22-.1-.47-.06-.76.02-.15.03-.27.05-.39.02-.11.04-.24.07-.38.06-.3.15-.55.29-.73s.33-.3.56-.36c.23-.06.52-.07.86-.01l1.28.2zm-.68.47-.66-.11c-.19-.03-.35-.03-.47 0s-.23.1-.3.21c-.07.11-.13.26-.16.45-.02.1-.03.18-.05.26s-.03.15-.04.22c-.01.08-.02.16-.03.26-.04.27 0 .48.11.63.11.15.31.25.6.29l.63.1.37-2.31zM30.31 71.1c.03.01.06.03.07.06.01.03.02.06.01.09l-1 3.1c-.01.03-.03.05-.06.07-.03.01-.06.02-.1.01l-.46-.15c-.04-.01-.06-.03-.07-.06-.01-.03-.02-.06-.01-.09l1-3.1c.01-.03.03-.06.06-.07.03-.02.06-.02.1 0l.46.14zM28.92 70.66c.03.01.06.04.07.07.01.03.01.06 0 .09l-1.24 3.01a.12.12 0 0 1-.07.07c-.03.01-.06.01-.09 0l-.37-.15a.218.218 0 0 1-.09-.07c-.01-.03-.02-.05-.02-.06l-.52-2.64-.83 2.03a.12.12 0 0 1-.07.07.17.17 0 0 1-.1 0l-.4-.16c-.04-.01-.06-.04-.07-.07a.17.17 0 0 1 0-.1l1.24-3a.12.12 0 0 1 .07-.07c.03-.01.06-.01.09 0l.37.15c.04.02.07.04.08.07.01.03.02.05.03.06l.53 2.59.82-1.99c.01-.03.03-.05.07-.06a.17.17 0 0 1 .1 0l.4.16zM23.62 68.14c.03.02.05.04.06.08.01.03 0 .06-.01.09L22 71.1c-.02.03-.04.05-.07.05-.03.01-.06 0-.09-.01l-.42-.25a.124.124 0 0 1-.06-.08c-.01-.03 0-.06.01-.09l1.67-2.8c.02-.03.04-.05.07-.06.03-.01.06 0 .09.02l.42.26zM22.33 67.37c.03.02.04.05.05.08.01.03 0 .06-.02.09l-1.88 2.66c-.02.03-.05.05-.08.05s-.06 0-.09-.02l-.32-.23a.185.185 0 0 1-.07-.09c-.01-.03-.01-.05-.01-.06l.09-2.69-1.27 1.79c-.02.03-.05.05-.08.05-.03.01-.06 0-.09-.02l-.35-.25a.156.156 0 0 1-.06-.08c-.01-.03 0-.06.02-.09l1.88-2.65c.02-.03.05-.05.08-.05s.06 0 .09.02l.33.23c.04.03.06.06.06.09s.01.05.01.06l-.06 2.64 1.24-1.75c.02-.03.05-.04.08-.05.03 0 .06 0 .1.03l.35.24zM19.47 65.29c.03.02.04.05.04.08s-.01.06-.03.09l-2.16 2.44c-.02.03-.05.04-.09.04-.03 0-.06-.01-.09-.03l-.94-.83c-.26-.23-.44-.46-.54-.68-.1-.23-.13-.45-.08-.68.05-.23.17-.45.36-.68.09-.11.18-.21.25-.3.07-.08.16-.18.26-.28.21-.23.43-.38.64-.46s.44-.08.67-.01c.23.07.48.22.73.45l.98.85zm-.82.04-.5-.44a1.13 1.13 0 0 0-.4-.25.526.526 0 0 0-.37.02c-.12.05-.25.15-.38.29-.07.07-.13.14-.18.19a4.649 4.649 0 0 0-.31.37c-.18.21-.26.41-.24.59.01.19.13.38.35.57l.48.42 1.55-1.76zM17.08 63.15c.02.02.03.05.03.08s-.01.06-.03.08c-.01.01-.02.02-.04.02l-3.22 1.26c-.03.01-.07.02-.1.02-.04 0-.07-.03-.11-.07l-.38-.41c-.03-.04-.05-.08-.05-.11s.01-.07.02-.1l1.55-3.09c.01-.01.02-.03.03-.04.02-.02.05-.03.08-.03s.05.01.07.03l.3.33c.03.04.05.07.05.1s-.01.06-.02.07l-.29.59L15.99 63l.61-.23c.02-.01.04-.01.07-.01.03 0 .06.02.1.06l.31.33zm-1.63.11-.79-.86-.75 1.47 1.54-.61z"/></g></svg>