<svg xmlns="http://www.w3.org/2000/svg" viewBox="0 0 80 80" style="enable-background:new 0 0 80 80" xml:space="preserve"><style>.st0{fill:#8fd2c1}.st1{fill:none;stroke:#8fd2c1;stroke-miterlimit:10}.st2{fill:#fff}.st3{fill:none;stroke:#8fd2c1;stroke-width:.75;stroke-miterlimit:10}</style><g id="sustainable"><path class="st0" d="M69.57 40.93c0 16.37-13.27 29.65-29.65 29.65S10.28 57.3 10.28 40.93s13.27-29.65 29.65-29.65 29.64 13.28 29.64 29.65zM40 1.27C18.61 1.27 1.27 18.61 1.27 40S18.61 78.73 40 78.73 78.73 61.39 78.73 40 61.39 1.27 40 1.27z"/><path class="st1" d="M33.95 26.21c.77 2.88 3.59 4.88 6.7 4.8 2.94-.07 5.53-1.98 6.31-4.68 3.26.32 7.55.76 10.81 1.08-.21 3.01-.76 5.91-.89 7.93l-5.41 1.44c.26 4.2.52 8.41.77 12.61-1.26.82-3.11 2.24-4.77 4.44a17.549 17.549 0 0 0-2.83 5.64c-.2.23-1.73 1.99-4.38 2.04-2.69.05-4.31-1.7-4.51-1.92-.2-1.04-.77-3.18-2.58-5.28-1.93-2.24-4.22-3.22-5.28-3.6.17-4.52.34-9.05.52-13.57l-4.89-1.32c-.43-2.52-.86-5.04-1.29-7.57l11.72-2.04z"/><path class="st2" d="M73.25 42.84c-.59-.88-1.17-1.77-1.76-2.65-.33-.64-.03-1.42.59-1.67.63-.25 1.39.11 1.58.81.55-.69 1.51-.77 2.04-.32.4.34.54.96.34 1.53-.93.76-1.86 1.53-2.79 2.3zM6.15 43.12l-2.39-2c-.49-.51-.43-1.32.09-1.73.52-.41 1.33-.28 1.71.32.33-.8 1.2-1.14 1.82-.87.47.21.77.75.74 1.34-.66.98-1.32 1.96-1.97 2.94z"/><path class="st0" d="M39.18 36.79c-.44-.57-.88-1.05-1.41-1.45-.52-.42-1.09-.74-1.71-1.12.73-.01 1.44.27 2.02.72.57.46 1.02 1.12 1.1 1.85z"/><path class="st0" d="M37.89 36.21c-.35.26-.81.39-1.28.37-.5-.03-.92-.35-1.24-.63-.68-.59-1.2-1.35-1.58-2.16l-.19-.4.44-.11c.96-.24 1.94-.35 2.93-.3.25.02.5.05.76.12.26.06.54.24.71.44.34.42.47.94.45 1.42-.15-.46-.36-.89-.71-1.14-.31-.27-.74-.23-1.21-.23-.92.05-1.85.2-2.75.41l.25-.51c.33.75.77 1.44 1.3 2.07.28.3.54.59.91.69.36.11.79.07 1.21-.04zM39.81 36.7c-.13-.57.12-1.22.51-1.68.2-.24.46-.46.84-.57.39-.1.8.02 1.09.24.31.21.53.65.48 1.04-.05.38-.25.74-.59.93-.36.17-.73.18-1.06-.07-.29-.28-.25-.7-.04-.91-.05.28.07.56.25.6.15.06.42-.02.53-.12.12-.12.21-.3.2-.48 0-.17-.07-.29-.22-.4-.31-.25-.65-.18-1.06.15-.4.34-.74.71-.93 1.27z"/><path class="st1" d="M47.11 43.18c.03.69-.39 1.26-.93 1.29-.04 0-.08 0-.12-.01-.46 3.03-3.01 5.41-6.19 5.53-3.18.13-5.91-2.04-6.61-5.03-.04.01-.08.01-.12.01-.54.02-1-.52-1.03-1.21-.03-.69.39-1.26.93-1.28.04 0 .08 0 .12.01.46-3.03 3.01-5.41 6.19-5.53 3.18-.13 5.91 2.04 6.61 5.03.04-.01.08-.01.12-.01.54-.03 1 .51 1.03 1.2z"/><path class="st3" d="M41.05 42.87c.13-.47.57-.78 1.02-.75.38.03.72.29.86.68M36.65 43.05c.05-.47.44-.83.9-.85.47-.02.9.31.98.78M37.77 45.32c.45.73 1.26 1.17 2.11 1.14.85-.03 1.62-.51 2.02-1.27"/><path class="st0" d="M42.24 59.41c.97 0 .97-1.5 0-1.5-.96 0-.96 1.5 0 1.5zM37.6 59.41c.97 0 .97-1.5 0-1.5s-.97 1.5 0 1.5z"/><path class="st2" d="M9.52 29.02c-.12.3-.27.53-.44.69-.17.16-.34.27-.53.32-.18.05-.35.04-.51-.02-.01 0-.03-.02-.04-.05-.01-.03-.01-.06 0-.08l.18-.43c.02-.04.04-.07.06-.08s.05-.02.08-.03c.07.01.14-.01.22-.04.08-.03.16-.08.24-.16.08-.08.14-.19.2-.33.1-.23.13-.42.1-.56a.4.4 0 0 0-.23-.3.275.275 0 0 0-.25 0c-.08.04-.17.11-.27.22s-.21.26-.35.44c-.16.22-.31.39-.45.52-.15.13-.3.21-.45.24-.15.03-.33.01-.51-.07a.85.85 0 0 1-.42-.35c-.1-.16-.15-.35-.15-.57 0-.22.05-.46.16-.72.09-.21.19-.38.31-.52s.25-.24.38-.31.26-.11.39-.12c.12-.01.23 0 .33.03.03.01.04.03.06.05.01.03.01.06 0 .09l-.19.45c-.01.03-.03.05-.05.07s-.06.03-.1.03c-.1-.02-.21.01-.32.08-.11.08-.2.2-.27.37-.07.17-.1.33-.08.46.02.13.09.22.22.28.09.04.17.04.25.01.08-.03.17-.09.26-.19s.2-.23.33-.41c.17-.25.33-.44.48-.58s.3-.23.45-.26c.15-.03.32-.01.51.07.21.08.36.21.45.39s.14.38.14.62c-.01.23-.07.48-.19.75zM11 25.92c-.14.27-.31.47-.5.62-.19.15-.41.23-.65.23-.24.01-.5-.06-.79-.22l-1.81-.98a.124.124 0 0 1-.06-.08.097.097 0 0 1 .01-.09l.22-.42c.02-.03.04-.05.07-.06.03-.01.06 0 .1.01l1.81.98c.24.13.46.17.64.11.18-.06.33-.19.44-.4.11-.21.14-.4.09-.58-.05-.18-.2-.34-.44-.47l-1.81-.98a.124.124 0 0 1-.06-.08c-.01-.03 0-.06.01-.1l.22-.41c.02-.03.04-.05.07-.06.03-.01.06 0 .1.01l1.81.98c.29.15.49.33.62.54.13.2.18.43.16.67-.02.26-.1.52-.25.78zM12.79 22.99c-.18.27-.37.46-.57.59-.2.13-.39.19-.58.2a.798.798 0 0 1-.49-.12c-.03-.02-.04-.04-.04-.07 0-.03 0-.06.02-.08l.26-.38c.03-.04.05-.06.08-.07.03-.01.06-.01.09-.01.07.02.14.02.22.01.08-.01.17-.05.26-.11s.18-.16.27-.29c.14-.21.21-.38.22-.53 0-.15-.05-.26-.17-.34a.284.284 0 0 0-.25-.05c-.09.02-.19.07-.3.16-.12.09-.26.21-.43.36-.2.18-.38.32-.55.42-.17.1-.33.14-.49.14-.16 0-.32-.06-.49-.17a.845.845 0 0 1-.34-.43c-.07-.18-.08-.37-.03-.59s.14-.44.3-.67c.13-.19.26-.33.41-.44.15-.11.29-.19.44-.23.14-.04.28-.06.4-.04.12.01.23.05.32.1.02.02.04.04.04.06.01.03 0 .06-.02.08l-.27.4-.06.06c-.03.02-.06.02-.1.01a.41.41 0 0 0-.34.02c-.13.05-.24.15-.34.3-.11.15-.16.3-.17.43-.01.13.04.24.16.32.08.05.16.07.24.06.08-.01.18-.06.29-.13.11-.08.25-.19.41-.33.22-.21.42-.36.59-.47s.34-.16.49-.16c.16 0 .32.06.48.17.18.13.31.28.37.47.06.19.06.4.01.63s-.17.48-.34.72zM14.5 20.62c-.02.03-.05.04-.08.05s-.06 0-.09-.03l-2.15-1.79-.62.74c-.02.03-.05.04-.08.05-.03 0-.06-.01-.09-.03l-.29-.24c-.03-.02-.04-.05-.05-.09 0-.03.01-.06.03-.09l1.7-2.04c.02-.03.05-.05.09-.05.03 0 .07.01.09.03l.29.24c.03.02.04.05.04.08s-.01.06-.03.09l-.61.74 2.15 1.79c.03.02.04.05.04.08s-.01.07-.03.09l-.31.38zM15.74 19.13c-.02.02-.04.03-.08.03-.03 0-.06-.01-.08-.03-.01-.01-.02-.02-.02-.04l-1.4-3.2c-.02-.03-.02-.07-.02-.1 0-.04.02-.08.06-.11l.4-.4c.04-.04.07-.06.11-.06.04 0 .07 0 .11.02l3.19 1.43c.01.01.03.02.04.03.02.02.03.05.03.08s-.01.05-.03.07l-.32.32c-.03.03-.07.05-.1.05s-.06 0-.08-.01l-.61-.27-1.1 1.09.26.61c.01.02.01.04.01.08 0 .03-.02.06-.05.1l-.32.31zm-.17-1.65.84-.83-1.52-.69.68 1.52zM18.55 16.45c-.03.02-.06.03-.09.03s-.06-.02-.08-.04l-2.14-2.51a.14.14 0 0 1-.03-.09c0-.03.02-.06.04-.08l.37-.32c.03-.02.06-.04.09-.03.03 0 .06.02.08.04l2.14 2.51c.02.03.03.06.03.09s-.02.06-.05.09l-.36.31zM19.69 15.48c-.03.02-.06.03-.09.02-.03 0-.06-.02-.08-.05l-1.94-2.65c-.02-.03-.03-.06-.02-.09 0-.03.02-.06.05-.08l.32-.24c.04-.03.07-.04.1-.04s.05.01.06.01l2.55.94-1.31-1.79a.161.161 0 0 1-.03-.09c0-.03.02-.06.05-.08l.35-.26c.03-.02.06-.03.1-.03.03 0 .06.02.08.05l1.94 2.65c.02.03.03.06.02.1-.01.03-.02.06-.05.08l-.33.24c-.04.03-.07.04-.1.03s-.05-.01-.07-.01l-2.51-.9 1.28 1.75c.02.03.03.06.02.09 0 .03-.02.06-.05.08l-.34.27zM22.33 13.56c-.02.01-.05.02-.08.01a.116.116 0 0 1-.07-.05c-.01-.01-.01-.03-.01-.04l-.56-3.45a.17.17 0 0 1 0-.1c.01-.04.04-.07.09-.09l.49-.29c.04-.03.09-.04.12-.03s.07.02.1.04l2.73 2.19c.01.01.02.02.03.04.01.03.02.05.01.08s-.02.05-.05.06l-.39.23c-.04.02-.08.03-.11.02-.03-.01-.05-.02-.07-.03l-.52-.41-1.33.78.1.66c0 .02 0 .05-.01.08s-.03.06-.07.08l-.4.22zm.24-1.63 1.02-.59-1.3-1.05.28 1.64zM25.7 11.66c-.03.01-.06.02-.09 0s-.05-.03-.07-.06l-1.35-3c-.01-.03-.02-.07 0-.1.01-.03.03-.05.07-.07l1.38-.62c.26-.12.48-.17.68-.17s.36.05.5.15c.14.1.24.23.32.41.05.12.08.23.08.34 0 .11-.02.2-.06.29-.04.08-.08.15-.12.21.15 0 .3.04.45.13.15.09.27.22.35.4.08.18.11.37.09.55a.98.98 0 0 1-.23.51c-.13.16-.32.29-.57.4l-1.43.63zm-.31-2.15.75-.34c.16-.07.27-.17.32-.29.05-.12.04-.24-.01-.36a.453.453 0 0 0-.26-.25c-.12-.03-.26-.01-.43.06l-.74.34.37.84zm.64 1.41.79-.36c.17-.08.28-.18.33-.31.05-.13.04-.26-.02-.39a.499.499 0 0 0-.29-.28c-.13-.05-.28-.03-.45.04l-.79.37.43.93zM28.89 10.28a.17.17 0 0 1-.1 0c-.03-.01-.05-.04-.06-.07l-1.06-3.12a.097.097 0 0 1 .01-.09c.01-.03.04-.05.07-.06l.46-.16a.17.17 0 0 1 .1 0c.03.01.05.04.06.07l.91 2.67 1.56-.53a.17.17 0 0 1 .1 0c.03.01.05.04.06.07l.11.34c.01.03.01.06-.01.09s-.04.05-.08.06l-2.13.73zM31.71 9.37c-.03.01-.06 0-.09-.01a.134.134 0 0 1-.06-.07l-.76-3.2c-.01-.04 0-.07.01-.1s.04-.05.08-.05l2.23-.53c.04-.01.07 0 .1.01.03.02.05.04.06.08l.08.33c.01.03 0 .06-.02.09s-.04.05-.08.06l-1.67.4.21.87 1.55-.37c.04-.01.07 0 .1.01.03.02.05.04.06.08l.07.3c.01.04 0 .07-.01.09-.02.03-.04.05-.08.05l-1.55.37.21.9 1.71-.41c.04-.01.07 0 .1.01.03.02.05.04.06.08l.08.32c.01.03 0 .06-.01.09s-.05.05-.08.06l-2.3.54zM35.94 8.5c-.04 0-.07-.01-.09-.03s-.04-.05-.04-.08l-.31-3.28c0-.04.01-.07.03-.09a.09.09 0 0 1 .08-.04l1.5-.14c.28-.03.51-.01.7.06.18.07.33.17.42.3.1.14.16.3.17.49a.743.743 0 0 1-.19.59c-.06.07-.13.12-.19.16.14.05.27.14.39.27s.19.29.21.49c.02.2-.01.38-.09.55-.08.17-.2.3-.38.41-.17.11-.4.17-.67.2l-1.54.14zm.4-2.13.81-.08c.18-.02.32-.07.4-.17.08-.09.12-.21.11-.35a.41.41 0 0 0-.17-.32c-.1-.07-.24-.1-.42-.08l-.81.08.08.92zm.14 1.54.86-.08c.19-.02.32-.08.41-.19.09-.11.12-.23.11-.37 0-.15-.06-.27-.17-.36-.11-.09-.25-.12-.44-.11l-.86.08.09 1.03zM39.05 8.22c-.03 0-.05-.01-.08-.03a.114.114 0 0 1-.03-.08c0-.01 0-.03.01-.04l1.31-3.24c.01-.03.03-.06.06-.09s.07-.04.12-.04l.57.01c.05 0 .09.01.12.04s.05.06.06.09l1.2 3.28v.05c0 .03-.01.06-.03.08-.02.02-.05.03-.07.03l-.45-.01c-.05 0-.08-.01-.11-.04-.02-.02-.04-.04-.04-.06l-.23-.62-1.55-.03-.26.61a.21.21 0 0 1-.04.06c-.02.02-.06.03-.11.03h-.45zm1.05-1.28 1.18.02-.57-1.57-.61 1.55zM42.91 8.34c-.03 0-.06-.02-.08-.05a.161.161 0 0 1-.03-.09l.43-3.26c0-.04.02-.07.05-.09.03-.02.06-.03.09-.02l1.5.2c.28.04.5.11.67.21.16.1.28.23.34.39.07.16.09.33.06.52-.02.13-.05.24-.11.32-.06.09-.13.16-.2.21s-.15.09-.22.11a.9.9 0 0 1 .41.87c-.03.2-.1.37-.21.52-.11.14-.27.25-.46.31s-.42.08-.69.04l-1.55-.19zm.66-.45.87.11c.19.02.33-.01.44-.09.11-.09.17-.2.19-.34a.486.486 0 0 0-.1-.39.572.572 0 0 0-.4-.2l-.86-.11-.14 1.02zm.21-1.54.81.11c.18.02.33 0 .43-.07s.16-.18.18-.32a.418.418 0 0 0-.09-.35c-.08-.09-.21-.15-.39-.17l-.81-.11-.13.91zM47.29 9.08a.156.156 0 0 1-.08-.06c-.02-.02-.02-.05-.01-.09l.27-1.11-.69-2.34v-.06c.01-.03.02-.05.05-.07.03-.02.05-.02.08-.01l.45.11c.04.01.07.03.09.05a.3.3 0 0 1 .04.08L48 7.22 49.19 6a.18.18 0 0 1 .07-.05c.03-.01.07-.02.11 0l.44.11c.03.01.05.02.07.05.02.02.02.05.01.08 0 .01-.01.02-.01.03 0 .01-.01.02-.02.02L48.18 8l-.28 1.11c-.01.03-.03.06-.05.07-.03.02-.06.02-.1.01l-.46-.11zM50.73 10.09a.12.12 0 0 1-.07-.07.139.139 0 0 1 0-.09l1.22-3.06a.12.12 0 0 1 .07-.07c.03-.01.06-.01.09 0l2.13.85c.04.01.06.04.08.07.01.03.01.06 0 .1l-.12.31c-.01.03-.04.05-.07.07a.17.17 0 0 1-.1 0l-1.59-.63-.33.83 1.48.59c.04.01.06.04.08.07.01.03.01.06 0 .1l-.12.29a.12.12 0 0 1-.07.07.17.17 0 0 1-.1 0l-1.48-.62-.34.86 1.63.65c.04.01.06.04.07.07s.01.06 0 .1l-.13.31c-.01.03-.03.05-.06.07a.17.17 0 0 1-.1 0l-2.17-.87zM54.62 11.86c-.29-.15-.5-.31-.66-.5-.15-.18-.24-.37-.27-.55a.83.83 0 0 1 .06-.5c.01-.03.04-.04.06-.05.03-.01.05 0 .08.01l.41.21c.04.02.07.04.08.07.01.03.02.06.02.09-.01.07 0 .14.02.22.02.08.07.17.14.25.07.08.18.16.32.23.22.12.41.16.55.15.15-.02.25-.08.31-.21.04-.09.05-.17.02-.25a.866.866 0 0 0-.2-.28c-.1-.11-.24-.24-.41-.39-.2-.17-.36-.34-.48-.5s-.18-.31-.2-.47c-.02-.16.02-.33.11-.5.09-.17.22-.3.38-.39.17-.08.36-.12.58-.1s.46.09.71.22c.2.1.36.22.49.35.13.13.22.27.28.41.06.14.09.27.09.39 0 .13-.02.23-.06.33-.01.02-.03.04-.06.05-.03.01-.06.01-.09-.01l-.4-.22a.09.09 0 0 1-.06-.06c-.02-.02-.03-.06-.02-.1.03-.1.01-.21-.06-.33a.779.779 0 0 0-.34-.3c-.17-.09-.32-.13-.45-.12a.35.35 0 0 0-.3.2c-.04.08-.05.17-.03.25.02.08.08.17.17.27s.22.22.38.37c.23.19.41.37.54.53.13.16.2.32.22.47.02.16-.02.32-.11.5-.1.2-.24.34-.42.42s-.39.11-.63.08c-.26-.02-.5-.1-.77-.24zM57.45 13.51c-.27-.18-.47-.36-.6-.56-.13-.2-.2-.39-.21-.58-.01-.19.02-.35.11-.49.02-.03.04-.04.07-.05.03-.01.06 0 .08.02l.39.25c.04.02.06.05.07.08s.01.06.01.09a.41.41 0 0 0 0 .22c.01.08.05.17.12.26s.16.18.29.26c.21.14.39.21.54.2.15 0 .26-.06.33-.17.05-.08.07-.17.05-.25s-.08-.19-.17-.3c-.09-.12-.21-.26-.37-.43-.19-.19-.33-.37-.43-.54a.959.959 0 0 1-.15-.49c0-.16.05-.32.16-.49.11-.16.25-.28.42-.35.17-.07.37-.08.59-.04.22.04.44.13.68.29.19.12.34.26.45.4.11.14.19.29.23.43.04.14.06.28.05.4-.01.13-.04.23-.09.32a.18.18 0 0 1-.07.05c-.03.01-.06 0-.08-.02l-.41-.26c-.02-.01-.04-.04-.06-.06-.02-.03-.02-.06-.02-.1.04-.1.03-.21-.02-.34a.745.745 0 0 0-.31-.33c-.16-.1-.3-.16-.43-.16-.13-.01-.24.05-.32.17a.36.36 0 0 0-.06.24c.01.08.06.18.14.29.08.11.19.24.34.4.21.21.37.41.48.58.11.17.17.34.17.49 0 .16-.05.32-.16.48-.12.19-.28.31-.47.38-.19.06-.4.07-.63.02s-.47-.15-.71-.31zM59.22 14.67c-.03-.02-.04-.05-.05-.08 0-.03 0-.06.02-.09l2.06-2.57c.02-.03.05-.05.08-.05s.06.01.09.03l1.79 1.43c.03.02.05.05.05.09 0 .03 0 .07-.03.09l-.21.26a.09.09 0 0 1-.08.04c-.03 0-.07-.01-.09-.03l-1.34-1.07-.56.7 1.25 1c.03.02.05.05.05.08s0 .06-.03.09l-.2.25c-.02.03-.05.04-.08.05-.03 0-.06-.01-.09-.03l-1.25-1-.58.72 1.37 1.1c.03.02.05.05.05.09 0 .03 0 .06-.03.09l-.21.26a.09.09 0 0 1-.08.04c-.03 0-.07-.01-.1-.03l-1.8-1.46zM61.66 16.66c-.03-.02-.04-.05-.04-.09s.01-.06.03-.09l2.3-2.35c.03-.03.06-.04.09-.04.04 0 .06.01.09.04l.29.28c.03.03.05.07.05.1v.06l-.51 2.67 1.55-1.59c.03-.03.06-.04.09-.04s.06.01.09.04l.31.31c.03.03.04.06.04.09s-.01.06-.04.09l-2.3 2.35c-.03.03-.06.04-.09.04-.04 0-.06-.01-.09-.04l-.29-.28c-.03-.03-.05-.07-.05-.1v-.06l.48-2.63-1.52 1.55c-.02.02-.05.04-.09.04-.04 0-.06-.01-.09-.04l-.3-.31zM64.7 19.85a.161.161 0 0 1-.03-.09c0-.03.02-.06.04-.08l2.15-1.79-.62-.74a.161.161 0 0 1-.03-.09c0-.03.02-.06.04-.08l.29-.24c.03-.02.06-.03.09-.03s.06.02.08.05l1.7 2.04c.02.03.04.06.03.09 0 .03-.02.06-.05.09l-.29.24c-.03.02-.06.03-.09.03s-.06-.02-.09-.05l-.61-.73-2.15 1.79c-.03.02-.06.03-.09.03s-.06-.02-.09-.05l-.28-.39zM66.12 21.65c-.02-.03-.03-.06-.02-.09s.02-.06.05-.08l2.67-1.93c.03-.02.06-.03.09-.02.03.01.06.02.08.05l.29.4c.02.03.03.06.02.09 0 .03-.02.06-.05.08l-2.67 1.93c-.03.02-.06.03-.09.02-.03 0-.06-.02-.08-.05l-.29-.4zM66.82 22.56c-.01-.02-.02-.05-.01-.08s.02-.05.05-.07c.01-.01.03-.01.04-.02l3.44-.64c.03-.01.07-.01.11 0 .04.01.07.04.1.08l.3.48c.03.04.04.08.03.12s-.02.07-.04.1l-2.12 2.78c-.01.01-.02.02-.04.03-.03.02-.05.02-.08.01s-.05-.02-.06-.05l-.24-.39c-.03-.04-.04-.08-.03-.11s.02-.05.03-.07l.4-.53-.81-1.32-.65.11h-.08a.134.134 0 0 1-.08-.07l-.26-.36zm1.64.2.62 1.01 1.02-1.32-1.64.31zM68.79 25.88a.097.097 0 0 1-.01-.09c.01-.03.03-.06.06-.07l2.96-1.45c.03-.01.06-.02.09 0 .03.01.05.03.07.06l.21.43c.02.03.02.06.01.1-.01.03-.03.06-.06.07l-2.53 1.24.72 1.48c.02.03.02.07.01.1s-.03.06-.07.07l-.32.16c-.03.02-.06.02-.09.01s-.06-.03-.07-.07l-.98-2.04zM70.41 29.63c-.11-.3-.16-.57-.15-.81.01-.24.07-.43.17-.59.1-.16.23-.27.38-.33.03-.01.06-.01.08 0s.04.03.06.06l.16.43c.01.04.02.08.01.1a.3.3 0 0 1-.04.08c-.05.04-.1.1-.13.18-.04.08-.06.17-.06.28s.02.24.08.38c.09.23.19.39.31.48.12.09.24.11.37.06.09-.03.15-.09.19-.18.03-.08.05-.2.04-.34 0-.15-.02-.33-.05-.56-.03-.27-.04-.49-.02-.69.02-.19.07-.36.17-.48.09-.13.23-.23.42-.3.18-.07.37-.08.55-.03.18.05.35.15.5.31.15.16.28.37.38.63.08.21.12.41.13.59 0 .18-.02.35-.07.49s-.12.26-.2.35c-.08.1-.17.16-.27.2-.02.01-.05.01-.08 0a.09.09 0 0 1-.06-.06l-.17-.45c-.01-.03-.01-.05-.01-.09 0-.03.02-.06.05-.09.09-.06.15-.15.18-.28.03-.13.01-.28-.05-.45-.07-.18-.15-.31-.25-.39-.1-.08-.22-.1-.35-.05-.09.03-.15.09-.19.16-.04.08-.06.18-.06.32s.01.31.03.52c.04.3.06.55.05.76-.01.21-.07.37-.16.5s-.23.23-.42.29c-.21.08-.41.09-.6.03s-.36-.18-.52-.36c-.17-.16-.3-.39-.4-.67zM69.35 54.23c.14-.29.3-.51.48-.67.18-.16.36-.25.54-.29a.84.84 0 0 1 .5.04c.03.01.04.03.05.06s.01.06-.01.08l-.2.42c-.02.04-.04.07-.07.08-.03.01-.05.02-.09.02-.07-.01-.14 0-.22.03s-.16.08-.24.15c-.08.07-.15.18-.22.32-.11.22-.15.41-.13.56.02.15.09.25.22.31.09.04.17.05.25.01.08-.03.17-.1.28-.21.1-.1.23-.24.38-.42.17-.21.33-.37.48-.49.15-.12.31-.19.47-.21.16-.02.33.01.51.1.18.08.31.21.4.37s.13.36.12.58c-.01.22-.07.46-.2.71-.1.2-.21.37-.34.5s-.26.23-.4.29-.27.1-.39.1a.697.697 0 0 1-.33-.05c-.03-.01-.04-.03-.05-.06a.139.139 0 0 1 0-.09l.21-.44c.01-.02.03-.05.05-.07s.06-.03.1-.03c.1.03.21 0 .33-.07.12-.07.21-.19.29-.35.08-.17.12-.32.1-.45a.335.335 0 0 0-.21-.29.366.366 0 0 0-.25-.03c-.08.03-.17.08-.27.18-.1.09-.21.22-.35.39-.18.24-.36.42-.51.56-.16.13-.31.21-.47.23a.864.864 0 0 1-.5-.1c-.2-.1-.34-.23-.43-.41-.09-.18-.12-.39-.1-.62.02-.23.1-.48.22-.74zM67.7 57.24c.16-.26.34-.45.54-.59.2-.14.42-.2.66-.2.24.01.5.09.77.26l1.75 1.08c.03.02.05.04.06.08.01.03 0 .06-.02.09l-.25.4c-.02.03-.05.05-.08.06-.03.01-.06 0-.1-.02l-1.75-1.08c-.24-.15-.45-.2-.63-.15s-.34.17-.46.37c-.13.2-.17.39-.12.58s.18.35.42.49l1.75 1.08c.03.02.05.04.06.08.01.03 0 .07-.02.1l-.25.4c-.02.03-.05.05-.08.06s-.06 0-.09-.02l-1.75-1.08c-.28-.17-.47-.36-.58-.57-.11-.21-.15-.44-.12-.68s.13-.48.29-.74zM65.74 60.06c.2-.25.4-.44.61-.55.21-.11.4-.17.59-.17s.35.05.48.15c.03.02.04.04.04.07 0 .03 0 .05-.02.08l-.29.37c-.03.04-.06.06-.08.06-.03.01-.06.01-.09.01-.06-.02-.14-.03-.22-.02-.08.01-.18.04-.27.1-.1.06-.19.15-.29.27-.15.2-.23.37-.25.52-.01.15.04.26.15.35.08.06.16.08.25.07.09-.02.19-.06.32-.14.12-.08.27-.19.46-.33.21-.17.4-.29.57-.38.18-.08.34-.12.5-.11.16.01.32.08.48.2.15.12.26.27.31.45.05.18.05.38 0 .59-.06.21-.17.43-.34.65-.14.18-.28.32-.44.42-.15.1-.3.17-.45.2a1.1 1.1 0 0 1-.4.02.72.72 0 0 1-.31-.12c-.02-.02-.04-.04-.04-.07 0-.03 0-.06.02-.08l.3-.38a.18.18 0 0 1 .07-.05c.03-.01.06-.02.1-.01.1.05.21.05.34 0 .13-.04.25-.14.36-.28a.89.89 0 0 0 .2-.42c.02-.13-.03-.24-.14-.33a.384.384 0 0 0-.24-.08c-.08.01-.18.05-.3.12-.11.07-.26.17-.43.3-.23.19-.44.34-.62.44-.18.1-.35.14-.5.13-.16-.01-.31-.08-.47-.2a.889.889 0 0 1-.34-.5c-.05-.19-.04-.4.03-.63.04-.26.17-.49.35-.72zM63.88 62.33a.09.09 0 0 1 .08-.04c.04 0 .06.01.09.03l2.03 1.92.66-.7c.02-.03.05-.04.09-.04.03 0 .06.01.09.03l.27.26c.03.03.04.05.04.09 0 .03-.01.06-.04.09l-1.82 1.93c-.03.03-.06.04-.09.04s-.07-.01-.09-.04l-.27-.26a.09.09 0 0 1-.04-.08c0-.03.01-.07.04-.09l.66-.7-2.03-1.92c-.02-.02-.04-.05-.04-.08s.01-.06.04-.09l.33-.35zM62.57 63.71c.02-.02.05-.03.08-.03s.06.01.08.03c.01.01.02.03.02.04l1.19 3.28c.01.03.02.07.01.11 0 .04-.03.08-.07.11l-.43.37c-.04.03-.08.05-.11.05-.04 0-.07-.01-.11-.03L60.14 66l-.03-.03a.114.114 0 0 1-.03-.08c0-.03.01-.05.03-.07l.34-.3c.04-.03.07-.05.1-.05s.06.01.08.02l.59.31 1.17-1.01-.22-.63c-.01-.02-.01-.04-.01-.08 0-.03.02-.06.06-.09l.35-.28zm.07 1.65-.89.78 1.47.79-.58-1.57zM59.58 66.21c.03-.02.06-.03.09-.02.03 0 .06.02.08.05l1.97 2.64c.02.03.03.06.02.09-.01.03-.02.06-.05.08l-.39.29c-.03.02-.06.03-.09.03-.03-.01-.06-.02-.08-.05l-1.97-2.64c-.02-.03-.03-.06-.02-.09 0-.03.02-.06.05-.08l.39-.3zM58.38 67.11c.03-.02.06-.02.09-.02.03.01.06.02.08.05l1.76 2.78c.02.03.03.06.02.1-.01.03-.03.06-.05.08l-.34.21c-.04.03-.08.04-.11.03-.03-.01-.05-.01-.06-.02l-2.48-1.11 1.19 1.88c.02.03.03.06.02.1-.01.03-.03.06-.06.08l-.37.23c-.03.02-.07.03-.1.02a.156.156 0 0 1-.08-.06l-1.76-2.78a.116.116 0 0 1-.02-.1c.01-.03.03-.06.05-.08l.34-.22c.04-.03.08-.04.11-.03.03.01.05.01.06.01l2.45 1.07-1.16-1.84c-.02-.03-.02-.06-.02-.09s.03-.06.06-.08l.38-.21zM55.62 68.83c.03-.01.05-.01.08-.01.03.01.05.03.06.05.01.01.01.03.01.05l.32 3.48c0 .03 0 .07-.01.11-.01.04-.05.07-.09.09l-.51.25c-.05.02-.09.03-.12.02a.193.193 0 0 1-.09-.05l-2.57-2.37c-.01-.01-.02-.03-.03-.04a.11.11 0 0 1 0-.08c.01-.03.03-.05.05-.06l.41-.2c.04-.02.08-.03.11-.02.03.01.05.02.07.04l.49.44 1.39-.68-.06-.66c0-.02 0-.05.01-.08s.04-.05.08-.08l.4-.2zm-.35 1.62-1.06.52 1.23 1.14-.17-1.66zM52.13 70.5a.17.17 0 0 1 .1 0c.03.01.05.04.06.07l1.14 3.09c.01.03.01.07 0 .1s-.04.05-.07.06l-1.41.53c-.26.1-.49.14-.69.12a.965.965 0 0 1-.49-.18c-.13-.11-.23-.25-.3-.43a.828.828 0 0 1-.05-.34c.01-.11.04-.2.08-.28s.09-.15.14-.2a.878.878 0 0 1-.44-.16.85.85 0 0 1-.32-.42c-.07-.19-.09-.38-.06-.56.03-.18.12-.35.26-.49s.34-.27.59-.36l1.46-.55zm-.38.72-.81.3a.55.55 0 0 0-.35.29c-.06.13-.06.26-.01.39.05.14.14.24.27.29.13.06.28.05.45-.01l.81-.3-.36-.96zm.54 1.45-.76.28c-.17.06-.29.15-.34.26-.06.11-.06.23-.01.36.05.13.13.22.24.26.11.04.26.03.43-.03l.77-.28-.33-.85zM48.84 71.66c.03-.01.06 0 .09.01.03.02.05.04.06.07l.85 3.19c.01.03 0 .06-.01.09-.02.03-.04.05-.08.06l-.47.12c-.03.01-.06 0-.09-.01a.134.134 0 0 1-.06-.07l-.72-2.72-1.6.42c-.04.01-.07.01-.1-.01a.124.124 0 0 1-.06-.08l-.09-.34c-.01-.03 0-.06.01-.09.02-.03.04-.05.08-.06l2.19-.58zM45.98 72.38c.03-.01.07 0 .09.02.03.02.04.05.05.08l.55 3.25c.01.04 0 .07-.02.1s-.05.04-.08.05l-2.26.38c-.04.01-.07 0-.1-.02s-.05-.05-.05-.08l-.06-.33c-.01-.03 0-.06.02-.09s.05-.04.09-.05l1.69-.29-.15-.88-1.58.27c-.04.01-.07 0-.1-.02s-.04-.05-.05-.08l-.05-.31c-.01-.04 0-.07.02-.09.02-.03.05-.04.09-.05l1.58-.27-.16-.91-1.73.29c-.04.01-.07 0-.1-.02s-.04-.05-.05-.08l-.06-.33c-.01-.03 0-.06.02-.09s.05-.04.09-.05l2.31-.4zM41.71 72.97c.03 0 .07.01.09.03.03.02.04.05.04.08l.11 3.29c0 .04-.01.07-.03.09s-.05.04-.09.04l-1.51.05c-.28.01-.51-.02-.69-.1a.97.97 0 0 1-.41-.33.915.915 0 0 1-.14-.5c-.01-.13.01-.24.06-.34s.1-.18.16-.24c.07-.06.13-.11.2-.15a.918.918 0 0 1-.37-.29.776.776 0 0 1-.17-.5c-.01-.2.03-.38.12-.54.09-.16.22-.29.4-.39.18-.1.41-.15.68-.16l1.55-.04zm-.58.56-.87.03c-.19.01-.33.06-.42.16-.09.1-.14.23-.13.37 0 .15.06.27.16.36.1.09.25.14.43.13l.87-.03-.04-1.02zm.05 1.55-.82.03c-.18.01-.32.05-.41.14-.09.09-.13.2-.13.34.01.14.06.25.15.33.1.08.23.11.42.1l.82-.02-.03-.92zM38.55 73.07c.03 0 .05.01.07.04.02.02.03.05.03.08 0 .01 0 .03-.01.04l-1.48 3.17c-.01.03-.04.06-.07.08s-.07.03-.13.03l-.56-.04c-.05 0-.09-.02-.12-.05-.03-.03-.04-.06-.05-.09l-1.02-3.34v-.05c0-.03.01-.05.04-.07.02-.02.05-.03.08-.03l.45.03c.05 0 .08.02.1.04s.03.04.04.07l.2.63 1.54.11.29-.6c.01-.02.03-.04.05-.06.02-.02.06-.03.11-.03l.44.04zm-1.12 1.22-1.18-.08.48 1.6.7-1.52zM34.71 72.73c.04.01.06.02.08.05.02.03.03.06.02.09l-.62 3.23c-.01.04-.03.06-.05.08-.03.02-.06.02-.09.02l-1.48-.28c-.27-.05-.49-.14-.65-.25s-.27-.25-.32-.41c-.06-.16-.06-.33-.03-.52.02-.13.07-.23.13-.32a.796.796 0 0 1 .43-.3.845.845 0 0 1-.29-.37c-.08-.16-.09-.33-.06-.53a.974.974 0 0 1 .72-.79c.2-.05.43-.05.69 0l1.52.3zm-.98 1.94-.8-.16c-.18-.03-.32-.02-.43.05-.11.07-.17.17-.2.3-.03.14 0 .26.07.35.07.09.2.16.38.2l.8.15.18-.89zm.29-1.53-.85-.16a.563.563 0 0 0-.45.07.53.53 0 0 0-.21.33c-.03.14 0 .28.08.39.08.11.21.19.39.22l.85.17.19-1.02zM30.38 71.74c.03.01.06.03.07.06.02.03.02.06.01.09l-.33 1.09.56 2.38v.06c-.01.03-.03.05-.05.06s-.05.02-.08.01l-.44-.14a.146.146 0 0 1-.09-.06c-.02-.03-.03-.05-.03-.08l-.42-1.67-1.28 1.16a.15.15 0 0 1-.08.04c-.03.01-.07.01-.11 0l-.44-.13c-.03-.01-.05-.03-.07-.05-.01-.03-.02-.05-.01-.08 0-.01.01-.02.01-.03s.01-.02.02-.02l1.79-1.66.33-1.09c.01-.03.03-.05.06-.07s.06-.02.1-.01l.48.14zM27.01 70.54c.03.01.05.04.07.07.01.03.01.06 0 .09l-1.38 3a.12.12 0 0 1-.07.07.17.17 0 0 1-.1 0l-2.08-.96c-.03-.02-.06-.04-.07-.07a.121.121 0 0 1 .01-.1l.14-.3c.01-.03.04-.05.07-.06.03-.01.07-.01.1.01l1.56.72.38-.81-1.45-.67c-.04-.02-.06-.04-.07-.07a.17.17 0 0 1 0-.1l.13-.28c.02-.03.04-.06.07-.07.03-.01.06-.01.1.01l1.45.67.39-.84-1.59-.73c-.03-.02-.06-.04-.07-.07a.118.118 0 0 1 .01-.1l.14-.3c.01-.03.04-.05.07-.06.03-.01.07-.01.1.01l2.09.94zM23.2 68.56c.28.16.49.34.63.53s.22.38.24.56c.02.19-.01.35-.08.5-.02.03-.04.04-.07.05s-.06 0-.08-.01l-.4-.23a.134.134 0 0 1-.07-.08.292.292 0 0 1-.02-.09c.02-.07.01-.14-.01-.22a.603.603 0 0 0-.13-.25c-.07-.09-.17-.17-.3-.25-.22-.13-.4-.18-.54-.18-.15.01-.26.07-.33.19a.28.28 0 0 0-.03.25c.03.08.09.18.18.29.09.11.23.25.39.41.19.18.35.36.45.52.11.16.17.32.18.48.01.16-.04.33-.14.5-.1.17-.23.29-.4.37-.17.08-.37.1-.59.07a1.87 1.87 0 0 1-.69-.25c-.19-.11-.35-.24-.47-.38s-.21-.28-.25-.42a.967.967 0 0 1-.07-.4.7.7 0 0 1 .08-.33c.01-.02.03-.04.06-.05.03-.01.06 0 .08.01l.42.24c.02.01.04.03.06.06.02.03.02.06.02.1-.03.1-.02.21.04.33.06.12.17.23.33.32s.31.14.44.14.23-.06.31-.18c.05-.08.06-.16.04-.25a.681.681 0 0 0-.16-.28c-.08-.1-.2-.23-.36-.38a4.04 4.04 0 0 1-.51-.56.947.947 0 0 1-.19-.48c-.01-.16.04-.32.14-.49.11-.19.26-.33.45-.4s.4-.09.63-.05c.22.05.47.15.72.29zM20.48 66.79c.26.19.45.39.57.59s.18.4.19.58c0 .19-.04.35-.13.49-.02.02-.04.04-.07.04-.03 0-.05 0-.08-.02l-.38-.27c-.04-.03-.06-.05-.07-.08-.01-.03-.01-.06-.01-.09.02-.06.03-.14.01-.22a.593.593 0 0 0-.11-.27c-.06-.09-.15-.19-.28-.28-.2-.15-.38-.22-.52-.23a.366.366 0 0 0-.34.16c-.06.08-.08.16-.06.25.02.09.07.19.15.31.08.12.2.27.35.44.17.2.31.39.4.56.09.17.13.34.13.5-.01.16-.07.32-.19.48a.89.89 0 0 1-.44.33c-.18.06-.37.06-.59.02-.21-.05-.44-.16-.67-.32-.18-.13-.33-.27-.43-.42-.11-.15-.18-.3-.21-.44a.928.928 0 0 1 .08-.72c.02-.02.04-.04.07-.04.03-.01.06 0 .09.02l.39.28.06.06c.01.03.02.06.01.1-.04.1-.04.21.01.34.05.13.15.24.29.35.15.11.29.17.42.18.13.01.24-.04.32-.15.06-.08.08-.16.07-.24a.651.651 0 0 0-.13-.29c-.07-.11-.18-.25-.32-.42-.2-.23-.35-.43-.46-.6s-.15-.35-.14-.5c0-.16.07-.31.18-.47.13-.18.29-.3.48-.35.19-.05.4-.05.63.01.26.04.49.16.73.33zM18.77 65.55c.03.02.04.05.04.08s-.01.06-.03.09l-2.18 2.46c-.02.03-.05.04-.09.04-.03 0-.06-.01-.09-.03l-1.71-1.52a.162.162 0 0 1-.05-.09c0-.03.01-.06.03-.09l.22-.25a.09.09 0 0 1 .08-.04c.03 0 .06.01.09.04l1.28 1.13.59-.67-1.2-1.06a.162.162 0 0 1-.05-.09c0-.03.01-.06.03-.09l.21-.23c.03-.03.05-.04.09-.04.03 0 .06.01.09.04l1.2 1.06.61-.69-1.31-1.16a.162.162 0 0 1-.05-.09c0-.03.01-.06.03-.09l.22-.25a.09.09 0 0 1 .08-.04c.03 0 .06.01.09.04l1.78 1.54zM16.42 63.42c.02.03.03.06.03.09s-.01.06-.04.08L14 65.83c-.03.02-.06.04-.09.03-.04 0-.06-.02-.09-.04l-.27-.29c-.03-.04-.05-.07-.05-.1s0-.05.01-.07l.65-2.64-1.63 1.5c-.03.03-.06.04-.09.04s-.06-.02-.09-.04l-.29-.32a.122.122 0 0 1-.04-.09c0-.03.01-.06.04-.09l2.42-2.22c.03-.02.06-.04.09-.03.03 0 .06.02.09.04l.28.3c.03.04.05.07.04.1v.07l-.62 2.6 1.6-1.47c.02-.02.05-.03.09-.03s.06.02.09.04l.28.3zM13.56 60.09c.02.03.03.06.02.09 0 .03-.02.06-.05.08l-2.25 1.66.57.77c.02.03.03.06.02.09s-.02.06-.05.08l-.3.22c-.03.02-.06.03-.1.03-.03-.01-.06-.02-.08-.05l-1.58-2.13a.169.169 0 0 1-.03-.1c0-.03.02-.06.05-.08l.3-.22c.03-.02.06-.03.09-.02.03 0 .06.02.08.05l.57.77 2.25-1.66c.03-.02.06-.03.09-.02.03.01.06.02.08.06l.32.38zM12.25 58.2c.02.03.02.06.02.09-.01.03-.02.06-.05.08l-2.79 1.75c-.03.02-.06.02-.09.01a.156.156 0 0 1-.08-.06L9 59.65a.116.116 0 0 1-.02-.1c.01-.03.03-.06.05-.07l2.79-1.75c.03-.02.06-.02.09-.02.03.01.06.03.08.06l.26.43zM11.62 57.25c.01.02.02.05.01.08s-.03.05-.05.06c-.01.01-.03.01-.04.01l-3.47.4c-.04.01-.07 0-.11-.01-.04-.01-.07-.04-.09-.09l-.26-.5c-.02-.05-.03-.09-.02-.12.01-.04.03-.07.05-.1l2.31-2.62c.01-.01.03-.02.04-.03.03-.01.05-.02.08-.01s.05.03.06.05l.21.4c.02.04.03.08.02.11-.01.03-.02.05-.04.07l-.43.5.72 1.37.66-.07c.02 0 .05 0 .08.01s.06.04.08.08l.19.41zm-1.63-.32-.54-1.05-1.11 1.25 1.65-.2zM9.88 53.78c.01.03.01.06 0 .1s-.03.05-.07.07l-3.06 1.24c-.03.01-.06.01-.09 0s-.05-.04-.07-.07l-.18-.45a.139.139 0 0 1 0-.09c.01-.03.04-.05.07-.07l2.61-1.05-.62-1.53c-.01-.04-.01-.07 0-.1s.04-.05.07-.07l.33-.13c.03-.01.06-.01.09 0s.05.04.07.07l.85 2.08zM8.54 49.94c.09.31.13.58.1.82-.03.23-.1.43-.21.58a.91.91 0 0 1-.4.31c-.03 0-.06-.01-.08-.02-.02-.01-.04-.04-.05-.07l-.13-.44a.205.205 0 0 1 0-.11c.01-.03.03-.05.05-.08.05-.04.1-.09.15-.17.03-.07.06-.16.06-.27.01-.11-.01-.24-.05-.39-.07-.24-.16-.41-.28-.5s-.24-.12-.37-.08c-.09.03-.16.08-.2.16-.04.08-.06.19-.07.34-.01.15 0 .33.01.56.02.27.01.5-.02.69s-.1.35-.2.47a.92.92 0 0 1-.44.27c-.19.06-.37.05-.55-.01-.18-.06-.34-.18-.48-.35-.14-.17-.25-.39-.33-.66-.07-.21-.09-.42-.09-.6.01-.18.04-.34.1-.48.06-.14.13-.25.22-.34a.67.67 0 0 1 .28-.18c.03-.01.05-.01.08.01.03.01.04.03.05.07l.14.46c.01.03.01.05 0 .08 0 .03-.02.06-.05.09-.09.05-.16.14-.2.27-.04.13-.03.28.02.46s.13.31.23.41c.1.09.21.11.35.07.09-.03.16-.08.2-.15.04-.07.07-.18.08-.31.01-.13.01-.31 0-.52-.02-.3-.02-.55 0-.76.03-.2.09-.37.19-.49s.25-.21.44-.27c.21-.06.41-.06.6.01s.35.2.5.39c.15.21.26.44.35.73z"/></g></svg>