<svg xmlns="http://www.w3.org/2000/svg" viewBox="0 0 80 80" style="enable-background:new 0 0 80 80" xml:space="preserve"><style>.st0{fill:#8fd2c1}.st1{fill:none;stroke:#8fd2c1;stroke-miterlimit:10}.st2{fill:#fff}.st4,.st5{fill:#fff;stroke:#8fd2c1;stroke-width:.5;stroke-miterlimit:10}.st5{fill:none;stroke-width:.25}</style><g id="eco_friendly"><path class="st0" d="M69.57 40.93c0 16.37-13.27 29.65-29.65 29.65S10.28 57.3 10.28 40.93s13.27-29.65 29.65-29.65 29.64 13.28 29.64 29.65zM40 1.27C18.61 1.27 1.27 18.61 1.27 40S18.61 78.73 40 78.73 78.73 61.39 78.73 40 61.39 1.27 40 1.27z"/><path class="st1" d="M24.09 43.67C22.72 35.33 28.79 27.33 37.1 26c8.26-1.32 16.41 4.33 17.8 12.48 1.52 8.88-5.57 17.27-14.31 17.94-7.62.59-15.19-4.81-16.5-12.75z"/><path class="st1" d="M24.42 37.45c.53 1.45 1.28 2.12 1.86 2.46 1.17.68 2.06.25 2.8 1.08.64.71.69 1.8.71 2.37.05 1.09-.28 1.5.07 2.14.32.59.94.88 1.15.98.72.34 1 .1 1.48.32.97.45 1.18 2.03 1.34 3.21.25 1.87-.15 2.5.39 3.03.6.59 1.8.5 2.57.08 1.59-.85 1.68-3.21 1.69-3.6.04-2.15-1.23-2.74-.73-4.11.36-1.01 1.12-.89 1.93-2.5.58-1.15.56-1.92.55-2.12-.02-.44-.07-1.55-.76-1.95-.66-.39-1.25.25-3.14.3-.81.02-1.34.03-1.58-.31-.38-.55.28-1.67.74-2.25.63-.78 1.01-.69 1.57-1.33.97-1.09.94-2.58.94-3.09-.03-1.6-.81-2.71-1.37-3.52a8.593 8.593 0 0 0-1.97-2.02c-1.36.46-4.11 1.6-6.58 4.27a15.826 15.826 0 0 0-3.66 6.56zM41.88 26c-1.09 1.88-1.04 3.44-.97 4.13.12 1.09.61 2.83 1.4 2.9.6.05 1.2-.88 1.56-1.43.73-1.14.56-1.72 1.08-1.98.64-.33 1.35.37 2.68.89.82.32 2.01.63 3.62.55-.87-.95-2.32-2.31-4.44-3.42A15.788 15.788 0 0 0 41.88 26zM50.21 52.04c-.44-.33-1.43-1.17-1.79-2.57-.33-1.29.03-2.43.15-2.79.43-1.27 1.01-1.38 1.04-2.29.03-.88-.49-1.73-1.1-2.22-.77-.61-1.23-.27-2.06-.86-1.03-.74-1.27-1.97-1.29-2.09-.32-1.74.98-3.1 1.21-3.33 1.6-1.67 3.95-1.44 4.44-1.39 1.75.17 2.95 1.08 3.44 1.49.46 1.32 1.29 4.29.55 7.94-.91 4.47-3.59 7.19-4.59 8.11z"/><path class="st0" d="M43.49 57.69c1.82-.59 3.54-1.39 5.11-2.39 1.59-1.03 3.11-2.1 4.14-3.6l.19-.28c.06-.09.09-.14.14-.26l.31-.64.64-1.28c.44-.85.86-1.7 1.33-2.54.45-.83.98-1.72 1.74-2.37.76-.64 1.63-1.12 2.56-1.36-.84.45-1.62 1-2.22 1.71-.62.68-1 1.51-1.39 2.37l-1.18 2.6-.61 1.29-.31.65c-.04.1-.13.26-.2.37l-.21.31c-.59.81-1.3 1.53-2.09 2.13-.8.6-1.62 1.09-2.47 1.55-1.69.96-3.58 1.54-5.48 1.74z"/><path class="st0" d="M55.24 46.4c-.05-.93.2-1.89.67-2.74.48-.85 1.21-1.56 2.06-2.05.85-.5 1.86-.77 2.85-.79 1 0 1.99.21 2.89.65l.73.36-.65.48a9.923 9.923 0 0 0-2.97 3.43c-.19.34-.38.73-.68 1.07-.3.34-.68.6-1.09.75-.82.29-1.68.22-2.45-.01.8.03 1.61-.03 2.26-.41.32-.18.59-.42.79-.71.19-.29.33-.65.5-1.02.31-.75.73-1.5 1.25-2.15.51-.66 1.13-1.24 1.79-1.74l.08.84c-.76-.35-1.62-.57-2.47-.58-.85-.01-1.69.16-2.47.54-.78.37-1.48.92-2.01 1.62-.54.69-.89 1.55-1.08 2.46zM50.53 28.04c-1.57-1.1-3.24-1.99-4.99-2.63-1.78-.64-3.55-1.22-5.36-1.14l-.34.01c-.11 0-.16.02-.29.04l-.7.13-1.41.27c-.94.16-1.87.33-2.82.47-.94.14-1.96.26-2.94.04-.96-.22-1.87-.63-2.63-1.22.87.4 1.77.69 2.7.74.91.09 1.8-.12 2.73-.32l2.78-.63 1.4-.29.7-.15c.1-.02.28-.06.42-.06l.38-.02c1-.02 2.01.11 2.96.38.95.28 1.85.64 2.73 1.04 1.77.79 3.37 1.95 4.68 3.34z"/><path class="st0" d="M34.43 25.47c-.71.6-1.63.98-2.59 1.12-.96.13-1.97-.03-2.88-.41a6.006 6.006 0 0 1-2.35-1.8 6.56 6.56 0 0 1-1.22-2.7l-.15-.8.77.23c1.47.44 2.99.56 4.53.3.39-.06.81-.13 1.26-.1.45.03.89.18 1.25.42.73.48 1.19 1.21 1.47 1.96-.46-.65-1-1.27-1.69-1.55a2.38 2.38 0 0 0-1.04-.2c-.35.02-.72.12-1.11.22-.78.2-1.63.32-2.47.3-.84-.01-1.67-.16-2.47-.38l.62-.57c.18.82.52 1.64 1.02 2.32.5.69 1.15 1.25 1.92 1.65.76.39 1.62.63 2.51.63.89-.01 1.79-.24 2.62-.64zM23.4 35.47c-.48 1.85-.73 3.73-.72 5.59.02 1.89.1 3.75.81 5.42l.13.31c.04.1.07.15.14.26l.37.61.74 1.22c.48.83.97 1.64 1.43 2.48.46.83.93 1.75 1.07 2.74.13.98.07 1.98-.23 2.89.07-.95.02-1.9-.25-2.79-.24-.89-.74-1.65-1.26-2.44l-1.56-2.39-.76-1.21-.38-.61c-.06-.09-.15-.25-.2-.37l-.15-.34c-.37-.93-.6-1.92-.68-2.91-.08-.99-.05-1.95.02-2.92.11-1.92.63-3.82 1.48-5.54z"/><path class="st0" d="M26.62 51.45c.81.46 1.49 1.18 1.95 2.03.46.86.67 1.86.63 2.84-.03.99-.34 1.98-.87 2.83-.54.84-1.24 1.57-2.11 2.09l-.69.42-.06-.8c-.11-1.53-.52-2.99-1.3-4.35-.19-.35-.41-.71-.54-1.14-.13-.43-.15-.89-.05-1.32.2-.85.71-1.54 1.32-2.06-.45.66-.84 1.38-.87 2.12-.02.37.03.73.18 1.04.15.32.37.63.59.96.47.66.87 1.42 1.14 2.21.29.79.44 1.62.51 2.45l-.75-.38c.7-.46 1.35-1.06 1.81-1.77.47-.71.77-1.52.87-2.37.1-.85.02-1.74-.29-2.57-.27-.83-.8-1.58-1.47-2.23z"/><circle class="st4" cx="74.19" cy="38.53" r="2.98"/><path class="st5" d="M74.19 41.51v-5.96M74.26 41.38c.14-.09 1.5-.97 1.6-2.65.08-1.25-.57-2.45-1.67-3.11M74.19 35.6c-.13.08-1.61 1.07-1.63 2.89-.01 1.81 1.45 2.82 1.58 2.91"/><path class="st5" d="M71.89 36.8c.55.16 1.34.33 2.3.32.96-.01 1.75-.19 2.3-.35M76.49 40.26c-.55-.16-1.34-.33-2.3-.32-.96.01-1.75.19-2.3.35M71.21 38.53h5.89"/><g><circle class="st4" cx="5.95" cy="39.41" r="2.98"/><path class="st5" d="M5.95 42.39v-5.96M6.02 42.27c.14-.09 1.5-.97 1.6-2.65.08-1.25-.57-2.45-1.67-3.11M5.95 36.49c-.13.08-1.61 1.07-1.63 2.89-.01 1.81 1.45 2.82 1.58 2.91"/><path class="st5" d="M3.65 37.68c.55.16 1.34.33 2.3.32.96-.01 1.75-.19 2.3-.35M8.25 41.15c-.55-.16-1.34-.33-2.3-.32-.96.01-1.75.19-2.3.35M2.97 39.42h5.89"/></g><g><path class="st2" d="M10.86 27c-.02.03-.04.05-.07.06-.03.01-.06.01-.09-.01L7.84 25.5a.134.134 0 0 1-.06-.07.097.097 0 0 1 .01-.09l1.08-1.99c.02-.03.04-.06.08-.07.03-.01.06-.01.1.01l.29.16c.03.02.05.04.06.07.01.03 0 .07-.01.1l-.81 1.49.78.42.75-1.39c.02-.03.04-.05.07-.07.03-.01.06-.01.09.01l.27.15c.03.02.05.04.06.07.01.03 0 .06-.02.1l-.75 1.39.8.44.83-1.53c.02-.03.04-.06.07-.07.03-.01.06-.01.1.01l.29.16c.03.02.05.04.06.07.01.03.01.07-.01.1L10.86 27zM12.19 24.55c-.02.02-.04.04-.07.04-.03.01-.06 0-.08-.01l-.03-.03-1.97-2.84c-.02-.03-.04-.06-.04-.1 0-.04.01-.08.04-.12l.31-.47c.03-.04.06-.07.1-.08.04-.01.07-.01.11 0l3.37.78c.02.01.03.01.04.02.02.02.04.04.04.07.01.03 0 .05-.02.08l-.25.37c-.03.04-.06.06-.09.07-.03.01-.06.01-.08 0l-.64-.14-.86 1.27.38.54c.01.02.02.04.03.07.01.03 0 .07-.03.11l-.26.37zm-.48-1.56.66-.97-1.61-.38.95 1.35zM14.39 21.41a.09.09 0 0 1-.08.04c-.03 0-.06 0-.09-.03l-2.49-2.09c-.03-.02-.04-.05-.05-.09 0-.03.01-.06.03-.09l.86-1.02c.27-.32.55-.51.85-.57.3-.06.58.02.86.25.19.16.31.34.35.54.04.2.03.41-.05.61l1.46.24c.02 0 .04.01.05.02.02.02.04.04.04.07 0 .03-.01.06-.02.08l-.3.36c-.04.05-.08.07-.12.07h-.12l-1.33-.25-.46.55.92.77c.03.02.04.05.04.08s-.01.06-.03.09l-.32.37zm-1.07-1.67.47-.56c.13-.16.2-.31.2-.45s-.07-.26-.2-.37a.534.534 0 0 0-.4-.14c-.14.02-.27.11-.41.27l-.47.56.81.69zM17.17 18.29c-.02.02-.05.04-.09.04s-.06-.01-.08-.03l-1.94-1.97-.68.67c-.03.02-.05.04-.09.04-.03 0-.06-.01-.09-.04l-.26-.26a.122.122 0 0 1-.04-.09c0-.03.01-.06.04-.09l1.87-1.84c.03-.03.06-.04.09-.04s.06.01.09.04l.26.26c.02.02.04.05.03.09 0 .03-.01.06-.04.09l-.68.67 1.94 1.97c.02.02.04.05.03.09 0 .03-.01.06-.04.09l-.32.31zM18.8 16.73c-.03.02-.06.03-.09.03s-.06-.02-.08-.05l-2.04-2.54a.161.161 0 0 1-.03-.09c0-.03.02-.06.05-.08l.37-.29c.03-.02.06-.03.09-.03s.06.02.08.05l.81 1.01 1.18-.95-.81-1.01a.161.161 0 0 1-.03-.09c0-.03.02-.06.05-.08l.36-.29c.03-.02.06-.03.09-.03s.06.02.08.05l2.04 2.54c.02.03.03.06.02.09s-.02.06-.05.08l-.36.29c-.03.02-.06.03-.09.03s-.06-.02-.08-.04l-.84-1.04-1.18.95.84 1.04c.02.03.03.06.03.09s-.02.06-.05.08l-.36.28zM22.66 13.84c-.03.02-.06.02-.09.02-.03-.01-.06-.03-.07-.05l-1.69-2.78c-.02-.03-.02-.06-.02-.1.01-.03.03-.06.06-.08l1.91-1.16c.03-.02.06-.03.1-.02.03.01.06.03.08.06l.18.3c.02.03.02.06.01.09s-.03.06-.06.08l-1.41.86.49.81 1.33-.8c.03-.02.06-.03.1-.02.03.01.06.03.08.06l.18.3c.02.03.02.06.01.09s-.03.06-.06.08l-1.33.8.64 1.06c.02.03.02.06.01.09s-.03.06-.06.08l-.39.23zM25.27 12.3c-.03.01-.06.02-.09.01s-.06-.03-.07-.06L23.7 9.31c-.02-.03-.02-.06-.01-.1.01-.03.03-.05.06-.07l1.2-.58c.37-.18.71-.24 1.01-.17.3.06.52.26.68.58.11.22.14.43.1.64-.04.2-.14.38-.3.54l1.23.82c.02.01.03.03.04.04.01.03.01.05 0 .08s-.03.05-.05.06l-.42.2a.18.18 0 0 1-.14.02.234.234 0 0 1-.1-.05l-1.11-.78-.65.31.52 1.08c.01.03.02.06 0 .09-.01.03-.03.06-.06.07l-.43.21zm-.28-1.96.65-.32c.19-.09.31-.2.36-.33a.52.52 0 0 0-.03-.42c-.06-.14-.17-.23-.3-.27s-.3-.02-.49.08l-.65.32.46.94zM28.37 10.89a.17.17 0 0 1-.1 0c-.03-.01-.05-.04-.06-.07l-1.2-3.03a.097.097 0 0 1 .01-.09c.01-.03.04-.05.07-.07l.45-.18a.17.17 0 0 1 .1 0c.03.01.05.04.06.07l1.19 3.03c.01.03.01.06 0 .09s-.04.05-.07.07l-.45.18zM29.74 10.35c-.03.01-.06.01-.09-.01-.03-.01-.05-.04-.06-.07l-.98-3.11a.118.118 0 0 1 .01-.1c.01-.03.04-.05.07-.06l2.16-.68c.03-.01.07-.01.1.01s.05.04.06.08l.1.31c.01.03.01.06-.01.09s-.04.05-.08.06l-1.62.51.27.84 1.51-.47a.17.17 0 0 1 .1 0c.03.01.05.04.06.07l.09.3c.01.04.01.07-.01.09-.02.03-.04.05-.08.06l-1.51.47.27.87 1.66-.52c.04-.01.07-.01.1.01.03.01.05.04.06.07l.1.31c.01.03.01.06-.01.09s-.04.05-.08.06l-2.19.72zM32.74 9.45c-.03.01-.06 0-.09-.02s-.05-.04-.05-.08l-.65-3.19c-.01-.04 0-.07.02-.1s.04-.04.08-.05l.39-.08c.05-.01.08-.01.11.01s.04.03.05.04l1.9 1.9-.44-2.15c-.01-.04 0-.07.02-.1s.04-.04.08-.05l.42-.09c.04-.01.07 0 .1.02s.05.04.05.08l.65 3.19c.01.04 0 .07-.02.1s-.05.05-.08.05l-.39.08c-.05.01-.08 0-.11-.01-.02-.02-.04-.03-.05-.04l-1.89-1.85.43 2.11c.01.03 0 .06-.02.09s-.05.05-.08.05l-.43.09zM36.24 8.8c-.03 0-.06-.01-.09-.03a.09.09 0 0 1-.04-.08l-.28-3.24c0-.04.01-.07.03-.09a.09.09 0 0 1 .08-.04l1.25-.11c.35-.03.64 0 .87.08.23.08.42.22.55.41.13.19.21.44.24.73a7.415 7.415 0 0 1 .06.77c.02.31-.02.57-.11.78-.09.21-.24.38-.46.49-.21.12-.49.19-.83.22l-1.27.11zm.54-.63.66-.06c.19-.02.34-.06.46-.12s.2-.16.24-.28c.05-.12.06-.28.05-.47-.01-.1-.01-.19-.02-.26 0-.07-.01-.15-.02-.22s-.02-.16-.03-.26c-.03-.27-.12-.47-.26-.58-.15-.12-.36-.16-.65-.14l-.64.06.21 2.33zM39.77 8.55c-.03 0-.06-.01-.09-.04a.127.127 0 0 1-.04-.09l.05-3.26c0-.03.01-.06.04-.08.02-.02.05-.03.09-.03l.48.01c.03 0 .06.01.09.04.02.02.03.05.03.09l-.05 2.78L42 8c.04 0 .07.01.09.04.02.02.03.05.03.09l-.01.35c0 .03-.01.06-.04.08 0 .02-.03.03-.07.03l-2.23-.04zM43.62 8.75c-.03 0-.06-.02-.08-.04a.161.161 0 0 1-.03-.09l.13-1.12-.96-2.22c0-.01 0-.02-.01-.03v-.03c0-.03.02-.05.04-.07.02-.02.05-.03.07-.02l.46.05c.04 0 .07.02.1.04.02.02.04.05.05.07l.7 1.55 1.04-1.34c.02-.02.04-.04.07-.06.03-.02.06-.02.1-.02l.45.05c.03 0 .05.02.07.04.02.02.03.05.02.08 0 .01 0 .02-.01.03 0 .01-.01.02-.02.02l-1.46 1.93-.13 1.13c0 .03-.02.06-.04.08-.03.02-.06.03-.1.02l-.46-.05zM47.1 9.32c-.03-.01-.06-.03-.07-.06a.097.097 0 0 1-.01-.09l.85-3.14c.01-.04.03-.06.06-.08.03-.02.06-.02.09-.01l1.33.36c.26.07.47.17.65.3.17.13.29.29.35.48s.06.4 0 .64c-.07.24-.17.43-.32.55-.15.13-.33.2-.54.23-.21.02-.45 0-.71-.07l-.74-.2-.3 1.13c-.01.03-.03.06-.06.07-.03.02-.06.02-.1.01l-.48-.12zm1.07-1.62.73.2c.19.05.35.05.48-.01.13-.06.21-.18.26-.35.04-.16.03-.3-.04-.43-.07-.12-.21-.21-.41-.27l-.73-.2-.29 1.06zM50.3 10.23a.134.134 0 0 1-.07-.06c-.01-.03-.02-.06 0-.09l1.18-3.04c.01-.03.03-.06.06-.07.03-.01.06-.01.09 0l1.24.48c.39.15.66.36.82.62.16.26.17.56.04.89-.09.23-.22.4-.4.51-.18.11-.37.16-.6.15l.24 1.46v.06a.09.09 0 0 1-.06.06.11.11 0 0 1-.08 0l-.44-.17a.201.201 0 0 1-.11-.09.26.26 0 0 1-.03-.11L52 9.48l-.67-.26-.43 1.12c-.01.03-.03.05-.06.07a.17.17 0 0 1-.1 0l-.44-.18zm1.23-1.54.68.26c.2.08.36.09.49.04.13-.05.22-.15.28-.31.06-.16.06-.3 0-.42-.06-.13-.19-.23-.39-.3l-.67-.26-.39.99zM54.52 12.12c-.27-.14-.48-.31-.63-.49-.15-.19-.23-.4-.25-.64-.02-.24.04-.5.17-.77.06-.13.13-.26.19-.38s.13-.25.2-.38c.15-.26.33-.46.53-.58.21-.12.43-.18.68-.17.24.01.5.08.76.22s.47.3.62.49c.15.19.24.41.26.65.02.24-.04.5-.17.77-.06.13-.12.26-.19.39-.07.12-.13.25-.2.37-.15.27-.33.46-.53.59-.2.13-.43.18-.67.17-.24-.02-.5-.1-.77-.24zm.26-.51c.2.1.39.13.57.08.18-.05.35-.2.49-.45.07-.13.14-.25.2-.36.06-.11.12-.23.18-.36.08-.18.12-.33.12-.47 0-.14-.04-.26-.12-.36a.78.78 0 0 0-.31-.25.772.772 0 0 0-.38-.1c-.13 0-.25.03-.36.11-.11.08-.22.2-.31.37l-.19.35c-.06.11-.12.23-.18.36-.13.26-.15.48-.09.66.06.18.19.32.38.42zM56.5 13.15c-.03-.02-.05-.04-.05-.08-.01-.03 0-.06.02-.09l1.8-2.71c.02-.03.05-.05.08-.05.03-.01.06 0 .09.02l1.05.69c.29.19.5.39.63.6.13.21.19.43.17.66-.02.23-.1.47-.26.72-.08.13-.15.24-.21.33-.06.09-.14.2-.22.31-.18.25-.37.44-.57.54-.2.11-.42.14-.66.1-.24-.04-.5-.16-.79-.35l-1.08-.69zm.81-.15.56.37c.16.11.3.17.44.19.13.02.25 0 .36-.07.11-.07.22-.18.33-.34.06-.08.11-.15.15-.21.04-.06.08-.12.13-.19.04-.06.08-.14.14-.22.14-.23.2-.44.16-.62-.04-.18-.18-.35-.42-.52l-.53-.35L57.31 13zM60.41 16.03c-.23-.19-.4-.4-.5-.61-.11-.22-.14-.44-.1-.68.04-.23.16-.48.36-.72l1.3-1.56c.02-.03.05-.04.08-.05.03 0 .06.01.09.03l.36.3c.03.02.04.05.05.08 0 .03-.01.06-.03.09l-1.3 1.56c-.18.21-.25.41-.24.6.02.19.12.35.3.5.18.15.36.22.55.2.19-.02.37-.13.54-.34l1.3-1.56c.02-.03.05-.04.08-.05.03 0 .07.01.09.03l.36.3c.03.02.04.05.05.08 0 .03-.01.06-.03.09l-1.3 1.56c-.21.25-.42.41-.64.49-.22.08-.45.09-.68.03-.23-.05-.46-.17-.69-.37zM62.99 18.42c-.22-.23-.37-.46-.45-.7-.08-.23-.08-.46-.02-.69.06-.22.19-.44.39-.65l.31-.31c.11-.11.22-.21.33-.31.21-.19.43-.31.66-.36s.46-.04.69.04c.23.08.46.24.68.46.16.17.29.34.37.51a1.286 1.286 0 0 1 .1.98 1 1 0 0 1-.25.4.09.09 0 0 1-.07.03.09.09 0 0 1-.08-.04l-.34-.35c-.03-.03-.04-.06-.05-.09 0-.03.01-.06.03-.1.12-.19.16-.37.12-.52a.968.968 0 0 0-.26-.44.747.747 0 0 0-.52-.26c-.19-.01-.39.08-.6.27-.2.18-.4.38-.6.59-.2.21-.29.4-.29.59.01.19.09.36.25.53.14.14.28.23.44.27.15.04.33 0 .52-.11.04-.03.07-.04.1-.03.03.01.06.02.08.05l.34.35c.02.02.03.05.03.08s-.01.05-.03.07c-.12.11-.25.19-.41.24-.14.07-.3.08-.46.06-.17-.02-.34-.08-.51-.17-.17-.09-.34-.22-.5-.39zM65 20.62a.161.161 0 0 1-.03-.09c0-.03.02-.06.04-.08l2.16-1.72-.6-.75a.161.161 0 0 1-.03-.09c0-.03.02-.06.04-.08l.29-.23c.03-.02.06-.03.09-.03s.06.02.08.05l1.64 2.06c.02.03.03.06.03.09s-.02.06-.05.08l-.29.23c-.03.02-.06.03-.09.02-.03 0-.06-.02-.09-.05l-.59-.74-2.16 1.72c-.03.02-.06.03-.09.02-.03 0-.06-.02-.09-.05l-.26-.36zM66.93 23.36c-.17-.27-.28-.52-.32-.75-.04-.23-.03-.43.03-.61.06-.17.16-.31.29-.4.03-.02.05-.02.08-.02.03.01.05.02.07.05l.25.38c.02.04.04.07.03.1 0 .03-.01.06-.02.09-.04.05-.07.12-.09.2-.02.08-.02.18 0 .28.02.11.07.22.16.35.14.21.27.34.4.4.14.06.26.05.37-.02.08-.05.13-.12.14-.21.01-.09 0-.2-.03-.34s-.09-.32-.17-.53c-.09-.25-.15-.47-.17-.66-.02-.19 0-.36.06-.5a.93.93 0 0 1 .34-.38c.16-.11.33-.15.52-.15s.37.07.55.19c.18.12.35.3.5.53.12.19.21.37.25.54.04.18.06.34.04.48-.02.15-.06.28-.11.39-.06.11-.13.19-.21.25-.02.01-.05.02-.08.02s-.05-.02-.07-.05l-.26-.4a.114.114 0 0 1-.03-.08c0-.03 0-.06.03-.1.07-.07.11-.18.11-.31s-.05-.28-.15-.43a.906.906 0 0 0-.33-.32c-.12-.06-.23-.05-.35.03-.08.05-.13.12-.15.2-.02.08-.02.19.01.32s.08.3.15.5c.11.28.17.52.21.72.03.2.02.37-.04.51s-.17.27-.34.37a.85.85 0 0 1-.57.15c-.2-.02-.39-.1-.58-.23-.18-.12-.36-.31-.52-.56zM68.24 55.95c.02-.03.04-.05.08-.06.03-.01.06 0 .09.01l2.78 1.69c.03.02.05.04.06.08.01.03 0 .06-.02.09l-1.18 1.94c-.02.03-.05.05-.08.06-.03.01-.06 0-.1-.02l-.28-.17c-.03-.02-.05-.04-.05-.07-.01-.03 0-.07.02-.1l.88-1.45-.76-.46-.82 1.35c-.02.03-.04.05-.08.06-.03.01-.06 0-.09-.01l-.26-.16a.124.124 0 0 1-.06-.08c-.01-.03 0-.06.02-.1l.82-1.35-.78-.48-.9 1.49c-.02.03-.05.05-.08.06-.03.01-.06 0-.1-.02l-.28-.17c-.03-.02-.04-.04-.05-.08-.01-.03 0-.07.02-.1l1.2-1.95zM66.78 58.33c.02-.02.04-.04.07-.04s.06 0 .08.02c.01.01.02.02.03.04l1.82 2.94a.3.3 0 0 1 .04.1c0 .04-.01.08-.04.12l-.34.45a.17.17 0 0 1-.1.07c-.04.01-.07 0-.11 0l-3.32-.96c-.02-.01-.03-.01-.04-.02-.02-.02-.04-.04-.04-.07 0-.03 0-.05.02-.08l.27-.36c.03-.04.06-.06.09-.07h.08l.63.18.92-1.22-.34-.56a.145.145 0 0 1-.02-.07c0-.03.01-.07.04-.1l.26-.37zm.4 1.59-.71.93 1.58.47-.87-1.4zM64.42 61.35c.02-.03.05-.04.09-.04s.06.01.09.03l2.37 2.23c.03.03.04.05.04.09 0 .03-.01.06-.03.09l-.91.97c-.28.3-.58.48-.88.53-.3.05-.58-.05-.84-.29-.18-.17-.29-.36-.32-.56-.03-.2 0-.41.08-.61l-1.44-.32c-.02-.01-.04-.01-.05-.03a.114.114 0 0 1-.03-.08c0-.03.01-.05.03-.08l.32-.34c.04-.04.08-.07.13-.07.04 0 .08 0 .11.01l1.32.33.49-.52-.87-.82c-.02-.02-.04-.05-.04-.08s.01-.06.04-.09l.3-.35zm.97 1.73-.5.53c-.14.15-.22.3-.22.44s.06.26.18.38c.12.11.25.17.39.16s.28-.09.43-.25l.5-.53-.78-.73zM61.46 64.31c.03-.02.06-.03.09-.03s.06.02.08.04l1.82 2.08.72-.63c.03-.02.06-.03.09-.03s.06.01.08.04l.24.28c.02.03.03.06.03.09s-.02.06-.04.08l-1.98 1.73c-.02.03-.05.04-.09.04-.03 0-.06-.02-.09-.04l-.24-.28a.14.14 0 0 1-.03-.09c0-.03.02-.06.05-.09l.71-.62-1.82-2.08c-.02-.02-.03-.05-.03-.09 0-.03.02-.06.05-.09l.36-.31zM59.75 65.76c.03-.02.06-.03.09-.02s.06.02.08.05l1.89 2.65c.02.03.03.06.02.09-.01.03-.02.06-.05.08l-.38.27c-.03.02-.06.03-.09.02-.03-.01-.06-.02-.08-.05l-.75-1.05-1.24.88.75 1.05c.02.03.03.06.02.09-.01.03-.02.06-.05.08l-.38.27c-.03.02-.06.03-.1.03-.03 0-.06-.02-.08-.05l-1.89-2.65c-.02-.03-.03-.06-.02-.09.01-.03.02-.06.06-.08l.38-.27c.03-.02.06-.03.09-.02.03 0 .06.02.08.05l.78 1.09 1.24-.88-.78-1.09c-.02-.03-.03-.06-.02-.09 0-.03.02-.06.05-.08l.38-.28zM55.73 68.42c.03-.02.06-.02.09-.01s.06.03.07.06l1.52 2.88c.02.03.02.06.01.1-.01.03-.03.06-.06.07l-1.98 1.04c-.03.02-.07.02-.1.01s-.06-.03-.07-.06l-.16-.31a.097.097 0 0 1-.01-.09c.01-.03.03-.05.07-.07l1.46-.77-.44-.84-1.37.72c-.03.02-.07.02-.1.01s-.06-.03-.07-.06l-.16-.31a.097.097 0 0 1-.01-.09c.01-.03.03-.06.07-.07l1.37-.72-.58-1.1c-.01-.03-.02-.06-.01-.09s.03-.06.07-.07l.39-.23zM53.03 69.8a.17.17 0 0 1 .1 0c.03.01.05.03.06.06l1.23 3.01c.01.03.01.07 0 .1s-.04.05-.07.07l-1.24.5c-.38.16-.72.19-1.02.11-.29-.08-.51-.29-.64-.62-.09-.23-.11-.44-.06-.64s.16-.37.33-.52l-1.18-.9c-.02-.01-.03-.03-.04-.04-.01-.03-.01-.06 0-.08a.09.09 0 0 1 .06-.06l.43-.18c.05-.02.1-.02.14-.01.04.02.07.03.1.06l1.06.85.66-.27-.45-1.11a.139.139 0 0 1 0-.09c.01-.03.04-.05.07-.07l.46-.17zm.17 1.97-.67.27c-.19.08-.32.18-.38.3s-.06.26 0 .42c.06.15.16.26.29.31.13.05.29.03.49-.05l.67-.28-.4-.97zM49.85 71.02c.03-.01.06-.01.09.01s.05.04.06.07l1.01 3.1c.01.03.01.06-.01.09s-.04.05-.07.06l-.46.15a.17.17 0 0 1-.1 0 .134.134 0 0 1-.06-.07l-1.01-3.1a.097.097 0 0 1 .01-.09c.01-.03.04-.05.08-.06l.46-.16zM48.44 71.47c.03-.01.06 0 .09.01.03.02.05.04.06.07l.79 3.16c.01.04 0 .07-.01.1-.02.03-.04.05-.08.05l-2.2.55c-.04.01-.07 0-.1-.01a.124.124 0 0 1-.06-.08l-.08-.32c-.01-.03 0-.06.01-.09.02-.03.04-.05.08-.06l1.64-.41-.21-.86-1.53.38c-.04.01-.07.01-.1-.01-.03-.01-.05-.04-.06-.08l-.07-.3c-.01-.04 0-.07.01-.09.02-.03.04-.04.08-.05l1.53-.38-.22-.89-1.68.42c-.04.01-.07 0-.1-.01a.124.124 0 0 1-.06-.08l-.08-.32c-.01-.03 0-.06.01-.09.02-.03.04-.05.08-.06l2.26-.55zM45.4 72.19c.03 0 .06 0 .09.02s.04.05.05.08l.47 3.22c.01.04 0 .07-.02.09s-.05.04-.08.05l-.39.06c-.05.01-.08 0-.11-.02-.02-.02-.04-.03-.05-.04l-1.79-2 .31 2.17c0 .04 0 .07-.02.09-.02.03-.05.04-.08.05l-.43.06c-.04.01-.07 0-.1-.02s-.04-.05-.05-.08l-.46-3.22c-.01-.04 0-.07.02-.09.02-.03.05-.04.08-.05l.4-.06c.05-.01.08 0 .11.02.02.02.04.03.05.04l1.78 1.96-.31-2.13c-.01-.03 0-.06.02-.09s.05-.04.09-.05l.42-.06zM41.88 72.65c.03 0 .06.01.09.03.03.02.04.05.04.08l.12 3.25c0 .04-.01.07-.03.09-.02.02-.05.04-.09.04l-1.26.05c-.35.01-.63-.03-.86-.12-.23-.09-.4-.24-.53-.44-.12-.2-.19-.45-.2-.74-.01-.15-.02-.28-.03-.39v-.38c0-.31.04-.57.15-.77s.26-.36.48-.47c.22-.11.5-.17.84-.18l1.28-.05zm-.57.6-.66.02c-.19.01-.35.04-.47.1-.12.06-.2.15-.26.27-.05.12-.08.28-.07.47v.26c0 .08 0 .15.01.23 0 .07.01.16.02.26.02.27.09.47.23.6s.35.18.65.17l.64-.02-.09-2.36zM38.32 72.72c.03 0 .06.01.09.04.02.03.03.05.03.09l-.2 3.25c0 .03-.02.06-.04.08-.03.02-.06.03-.09.03l-.48-.03c-.03 0-.06-.01-.09-.04-.02-.02-.03-.05-.03-.09l.17-2.78-1.63-.1c-.04 0-.07-.02-.09-.04-.02-.02-.03-.05-.03-.09l.02-.35c0-.03.02-.06.04-.08.03-.02.06-.03.1-.03l2.23.14zM34.49 72.33c.03 0 .06.02.08.05.02.03.03.06.02.09l-.19 1.11.84 2.27c0 .01 0 .02.01.03s0 .02 0 .03c-.01.03-.02.05-.04.07-.02.02-.05.02-.08.02l-.45-.08c-.04-.01-.07-.02-.09-.05-.02-.02-.04-.05-.04-.07l-.62-1.58-1.1 1.29a.18.18 0 0 1-.07.05c-.03.02-.06.02-.1.01l-.45-.08c-.03 0-.05-.02-.07-.04-.02-.02-.02-.05-.02-.08 0-.01 0-.02.01-.03 0-.01.01-.02.02-.02l1.55-1.85.19-1.11c.01-.03.02-.06.05-.08.03-.02.06-.02.1-.02l.45.07zM31.05 71.59c.03.01.06.03.07.06.02.03.02.06.01.09l-.99 3.1c-.01.03-.03.06-.06.07-.03.01-.06.02-.09.01l-1.31-.42c-.26-.08-.46-.19-.63-.33a.998.998 0 0 1-.33-.49c-.05-.19-.04-.4.03-.64.08-.24.19-.42.35-.54.15-.12.34-.19.55-.2.21-.02.45.02.7.1l.73.23.36-1.11c.01-.03.03-.06.06-.07.03-.02.06-.02.1-.01l.45.15zm-1.14 1.57-.72-.23c-.19-.06-.35-.06-.48-.01-.13.05-.22.17-.28.34-.05.16-.05.3.02.43.06.13.2.22.4.29l.72.23.34-1.05zM27.89 70.52c.03.01.05.04.07.07.01.03.01.06 0 .09l-1.31 2.98c-.02.03-.04.06-.07.07-.03.01-.06.01-.09 0l-1.22-.54c-.38-.17-.64-.39-.79-.65-.15-.27-.15-.56 0-.89.1-.23.24-.39.42-.49.18-.1.38-.14.6-.12l-.18-1.47c0-.02 0-.04.01-.06.01-.03.03-.05.06-.05.03-.01.06-.01.08 0l.43.19c.05.02.09.06.11.1.02.04.03.08.03.11l.13 1.35.65.29.48-1.1c.01-.03.04-.05.06-.06a.17.17 0 0 1 .1 0l.43.18zm-1.3 1.49-.66-.29c-.19-.08-.35-.11-.48-.06-.13.04-.23.14-.3.29-.07.15-.07.29-.02.42s.18.24.37.32l.67.29.42-.97zM23.76 68.45c.27.15.47.32.61.52.14.19.22.41.22.65 0 .24-.06.49-.21.77-.07.13-.14.25-.21.37-.07.12-.14.25-.22.37-.16.26-.34.44-.56.56s-.44.16-.68.14-.49-.1-.75-.25-.46-.32-.6-.52c-.14-.2-.22-.42-.23-.66-.01-.24.06-.49.2-.76.07-.13.13-.26.2-.38s.14-.24.22-.36c.16-.26.35-.45.56-.57.21-.12.43-.16.67-.14.26.02.51.11.78.26zm-.29.5c-.19-.11-.38-.15-.57-.1-.19.04-.35.19-.51.43-.08.12-.15.24-.21.35-.06.11-.13.23-.19.35-.09.17-.14.33-.14.47 0 .14.03.26.1.36.07.1.17.19.3.27.12.07.25.11.38.12.13.01.25-.02.37-.1.12-.07.23-.19.33-.36.08-.12.14-.24.2-.35.06-.11.13-.23.2-.36.14-.26.17-.48.11-.66-.05-.17-.18-.31-.37-.42zM21.8 67.33c.03.02.04.05.05.08.01.03 0 .06-.02.09l-1.91 2.63c-.02.03-.05.05-.08.05s-.06 0-.09-.02l-1.02-.74c-.28-.2-.48-.41-.6-.63-.12-.22-.17-.44-.14-.67.03-.23.12-.47.29-.71.08-.12.15-.23.22-.32s.14-.19.23-.31c.19-.25.39-.42.59-.52.21-.1.43-.12.67-.07.24.05.49.18.77.38l1.04.76zm-.81.12-.54-.39c-.16-.11-.3-.18-.43-.21a.53.53 0 0 0-.37.05c-.12.06-.23.17-.35.33-.06.08-.11.15-.16.21s-.09.12-.13.18c-.04.06-.09.13-.15.21-.15.22-.22.43-.18.61.03.18.17.36.4.53l.52.38 1.39-1.9zM18.05 64.31c.22.2.38.41.48.63.1.22.12.45.07.68-.05.23-.18.47-.39.71l-1.37 1.51c-.03.03-.05.04-.09.04s-.06-.01-.09-.03l-.35-.31c-.03-.03-.04-.05-.04-.09 0-.03.01-.06.04-.09l1.37-1.51c.18-.2.27-.4.26-.58-.01-.19-.1-.36-.28-.52-.17-.16-.35-.23-.54-.22-.19.01-.37.11-.56.32l-1.37 1.51c-.02.03-.05.04-.09.04-.03 0-.06-.01-.09-.04l-.34-.31c-.03-.03-.04-.05-.04-.09 0-.03.01-.06.03-.09l1.37-1.51c.21-.24.44-.39.66-.46.22-.07.45-.07.68 0 .23.07.45.21.68.41zM15.56 61.79c.21.24.35.48.42.71.07.24.06.47-.01.69-.07.22-.21.43-.41.63l-.33.3c-.12.1-.23.2-.34.29-.22.18-.44.29-.67.33-.23.05-.46.02-.69-.07-.23-.09-.45-.26-.66-.5-.15-.17-.27-.35-.35-.53-.08-.18-.12-.35-.13-.52-.01-.17.02-.33.07-.47.06-.15.14-.28.27-.39a.09.09 0 0 1 .07-.03c.03 0 .05.02.08.04l.32.37c.02.03.04.06.04.09s-.01.06-.03.1c-.13.19-.18.36-.15.51s.11.3.24.45c.15.17.32.27.51.29s.39-.06.61-.24c.21-.17.42-.36.63-.56s.31-.39.31-.58c0-.19-.07-.37-.23-.54a.868.868 0 0 0-.42-.29c-.15-.05-.32-.02-.52.08-.04.02-.08.03-.11.02a.177.177 0 0 1-.08-.05l-.33-.37c-.02-.02-.03-.05-.03-.08s.01-.05.04-.07c.12-.11.26-.18.42-.22.15-.04.31-.04.48-.02.17.03.33.09.5.19.16.13.32.27.48.44zM13.65 59.51c.02.03.03.06.02.09 0 .03-.02.06-.05.08l-2.25 1.61.55.78c.02.03.03.06.02.09-.01.03-.02.06-.05.08l-.3.21c-.03.02-.06.03-.09.02-.03-.01-.06-.02-.08-.05L9.9 60.28a.169.169 0 0 1-.03-.1c.01-.03.02-.06.05-.08l.3-.21c.03-.02.06-.03.09-.02.03.01.06.02.08.05l.55.77 2.25-1.61c.03-.02.06-.03.09-.02.03.01.06.02.08.06l.29.39zM11.89 56.66c.16.28.25.53.28.76.03.23 0 .43-.07.6-.07.17-.18.3-.32.38-.03.02-.05.02-.08.01a.102.102 0 0 1-.06-.05l-.23-.4c-.02-.04-.03-.07-.02-.1 0-.03.02-.06.03-.08.05-.05.08-.11.11-.2a.65.65 0 0 0 .01-.28c-.02-.11-.06-.23-.14-.36-.12-.21-.25-.36-.38-.42a.352.352 0 0 0-.37 0c-.08.05-.14.11-.15.2-.02.09-.02.2.01.34.02.14.07.32.13.54.07.25.12.48.13.67.01.19-.02.36-.09.5-.07.14-.19.26-.37.36-.17.1-.34.13-.53.11-.18-.02-.36-.1-.54-.23a1.91 1.91 0 0 1-.47-.56 1.97 1.97 0 0 1-.22-.56c-.03-.18-.04-.34-.01-.49.03-.14.07-.27.14-.38.06-.11.14-.19.23-.24.02-.01.05-.02.08-.01s.05.02.07.05l.24.42c.01.02.02.05.02.08s-.01.06-.03.1c-.08.07-.12.17-.13.31s.03.28.12.43c.09.16.19.28.31.34.11.07.23.06.35 0 .08-.05.13-.11.16-.19s.03-.19.01-.32c-.02-.13-.06-.3-.12-.51a3.76 3.76 0 0 1-.16-.73.92.92 0 0 1 .08-.51c.07-.14.19-.26.36-.35.19-.11.38-.15.58-.12.19.03.38.12.56.27.17.17.33.37.48.62z"/></g></g></svg>